<svg xmlns="http://www.w3.org/2000/svg" width="37.995" height="41.438" viewBox="0 0 37.995 41.438">
  <g id="Gold_Medal_Virtual_Piano" data-name="Gold Medal, Virtual Piano" transform="translate(0 0)">
    <path id="Path_37159" data-name="Path 37159" d="M47.119,202.1,37.3,220.588l8.915-.826,4.312,7.852,9.819-18.5Z" transform="translate(-37.3 -186.177)" fill="#ff8300"/>
    <g id="Group_4608" data-name="Group 4608" transform="translate(8.109 15.923)">
      <path id="Path_37160" data-name="Path 37160" d="M132.46,253.389a1.257,1.257,0,0,0-.588-1.607l-.562-.3a1.207,1.207,0,0,1,1.159-2.117l1.6.843a1.014,1.014,0,0,0,1.37-.422l.035-.079a.951.951,0,0,0-.369-1.344l-4.778-2.53a1.258,1.258,0,0,1-.6-1.607,1.2,1.2,0,0,1,1.66-.553l4.427,2.354a1.014,1.014,0,0,0,1.37-.422l.026-.061.009-.018a1.053,1.053,0,0,0-.439-1.44l-2.486-1.317a1.253,1.253,0,0,1-.588-1.616,1.211,1.211,0,0,1,1.66-.553l2.74,1.458a1.021,1.021,0,0,0,1.388-.474c0-.009,0-.009.009-.018s0-.009.009-.018a1.023,1.023,0,0,0-.386-1.414l-2.96-1.572a1.255,1.255,0,0,1-.588-1.6,1.2,1.2,0,0,1,1.66-.553l7.308,3.873-9.8,18.5-2.705-4.918A1.165,1.165,0,0,0,132.46,253.389Z" transform="translate(-129.625 -233.267)" fill="#ff8300"/>
      <path id="Path_37161" data-name="Path 37161" d="M220.727,202.1l9.819,18.488-8.915-.826-4.312,7.852-9.819-18.5Z" transform="translate(-200.66 -202.1)" fill="#ff8300"/>
    </g>
    <path id="Path_37162" data-name="Path 37162" d="M219.6,253.389a1.257,1.257,0,0,1,.589-1.607l.562-.3a1.207,1.207,0,0,0-1.159-2.117l-1.6.843a1.014,1.014,0,0,1-1.37-.422l-.035-.079a.951.951,0,0,1,.369-1.344l4.778-2.538a1.258,1.258,0,0,0,.6-1.607,1.2,1.2,0,0,0-1.66-.553l-4.435,2.363a1.014,1.014,0,0,1-1.37-.422l-.026-.061-.009-.018a1.053,1.053,0,0,1,.439-1.44l2.486-1.317a1.253,1.253,0,0,0,.589-1.616,1.21,1.21,0,0,0-1.66-.553l-2.749,1.458a1.021,1.021,0,0,1-1.388-.474c0-.009,0-.009-.009-.018s0-.009-.009-.018a1.023,1.023,0,0,1,.386-1.414l2.96-1.572a1.255,1.255,0,0,0,.588-1.6,1.2,1.2,0,0,0-1.66-.553l-7.307,3.873,9.819,18.5,2.705-4.918A1.165,1.165,0,0,1,219.6,253.389Z" transform="translate(-192.551 -217.344)" fill="#ff8300"/>
    <ellipse id="Ellipse_2339" data-name="Ellipse 2339" cx="16.398" cy="16.398" rx="16.398" ry="16.398" transform="translate(2.6 0)" fill="#ffcc5b"/>
    <path id="Path_37163" data-name="Path 37163" d="M132.008,97.615a11.708,11.708,0,1,1,11.708-11.708A11.721,11.721,0,0,1,132.008,97.615Z" transform="translate(-113.01 -69.51)" fill="#ffdb70"/>
    <g id="Group_4609" data-name="Group 4609" transform="translate(8.827 7.632)">
      <path id="Path_37164" data-name="Path 37164" d="M142.332,121.1a1.54,1.54,0,0,0-.378.58,1.613,1.613,0,0,0-.123.685c.018.255.123.527.132.773a.356.356,0,0,0,0,.1,11.473,11.473,0,0,1-1.212-1.976,1.082,1.082,0,0,1,.079-.386,4.392,4.392,0,0,1,.36-.536,2.359,2.359,0,0,0,.211-.606,2.23,2.23,0,0,0,.053-.694c-.018-.009-.044-.026-.061-.035a1.458,1.458,0,0,0-.483.439,1.369,1.369,0,0,0-.263.6c-.035.228,0,.509-.044.729-.009.044-.026.079-.035.123a11.6,11.6,0,0,1-.7-2.126,1.072,1.072,0,0,1,.176-.422,3.338,3.338,0,0,1,.457-.4,1.776,1.776,0,0,0,.316-.509,1.968,1.968,0,0,0,.176-.632l-.053-.053a1.315,1.315,0,0,0-.536.29,1.362,1.362,0,0,0-.369.483c-.079.2-.1.465-.184.659a.727.727,0,0,1-.079.141,11.37,11.37,0,0,1-.211-2.178.959.959,0,0,1,.29-.43,3.392,3.392,0,0,1,.5-.263,1.308,1.308,0,0,0,.386-.4,1.87,1.87,0,0,0,.281-.562c-.009-.018-.026-.044-.035-.061a1.159,1.159,0,0,0-.562.141,1.079,1.079,0,0,0-.43.369c-.114.176-.176.413-.3.58a.534.534,0,0,1-.141.141,12.545,12.545,0,0,1,.264-2.134.046.046,0,0,0,.018-.035,1.092,1.092,0,0,1,.4-.4,3.425,3.425,0,0,1,.518-.123,1.275,1.275,0,0,0,.439-.29,1.89,1.89,0,0,0,.369-.474c-.009-.026-.018-.044-.026-.07a1.04,1.04,0,0,0-.545,0,1,1,0,0,0-.465.246c-.141.141-.246.351-.386.474a.688.688,0,0,1-.193.132,11.8,11.8,0,0,1,.755-2.055c.009.009.009.018.018.026l.079-.079a.983.983,0,0,1,.448-.29,3.072,3.072,0,0,1,.492.009,1.069,1.069,0,0,0,.457-.184,1.733,1.733,0,0,0,.439-.386.171.171,0,0,0-.009-.07.979.979,0,0,0-.966.009c-.158.105-.3.29-.448.378a.724.724,0,0,1-.228.088.079.079,0,0,1,.009-.044,12.22,12.22,0,0,1,1.95-2.67,12.257,12.257,0,0,0-1.915,2.371c0-.026.009-.053.009-.079a3.642,3.642,0,0,0,0-.536,1.727,1.727,0,0,0-.4-.931l-.079.026a2.414,2.414,0,0,0-.334,1.238,1.873,1.873,0,0,0,.105.509,1.167,1.167,0,0,0,.228.439.374.374,0,0,1,.044.061,12.092,12.092,0,0,0-.755,1.774v-.018A5.664,5.664,0,0,0,139.7,112a2.13,2.13,0,0,0-.624-.9.307.307,0,0,1-.07.044,2.607,2.607,0,0,0-.009,1.353,1.878,1.878,0,0,0,.237.5,1.563,1.563,0,0,0,.343.413l.009.009a11.708,11.708,0,0,0-.325,1.827,3.733,3.733,0,0,0-.272-.527,2.45,2.45,0,0,0-.852-.817l-.061.061a2.914,2.914,0,0,0,.334,1.405,2.528,2.528,0,0,0,.369.474,1.538,1.538,0,0,0,.422.334,11.574,11.574,0,0,0,.088,1.827c-.123-.158-.246-.316-.378-.457a2.841,2.841,0,0,0-1.063-.685c-.018.026-.026.044-.044.07a3.059,3.059,0,0,0,.694,1.37,2.453,2.453,0,0,0,.5.413,1.884,1.884,0,0,0,.457.237,12.432,12.432,0,0,0,.492,1.757c-.158-.123-.316-.255-.483-.36a3.441,3.441,0,0,0-1.265-.5l-.026.079a3.513,3.513,0,0,0,1.063,1.265,3.254,3.254,0,0,0,.624.325,1.917,1.917,0,0,0,.474.132,13.839,13.839,0,0,0,.887,1.616c-.184-.088-.378-.184-.562-.255a3.919,3.919,0,0,0-1.449-.263c0,.026-.009.061-.009.088a3.432,3.432,0,0,0,2.169,1.274,2.872,2.872,0,0,0,.474.035,12.753,12.753,0,0,0,.852.975l.483-.483a11.085,11.085,0,0,1-.975-1.063,1.175,1.175,0,0,1,0-.351,4.163,4.163,0,0,1,.228-.659,2.275,2.275,0,0,0,.061-.694,3.216,3.216,0,0,0-.1-.738C142.376,121.12,142.35,121.112,142.332,121.1Z" transform="translate(-137.8 -107.7)" fill="#ff8300"/>
      <path id="Path_37165" data-name="Path 37165" d="M309.225,121.1a1.539,1.539,0,0,1,.378.58,1.611,1.611,0,0,1,.123.685c-.018.255-.123.527-.132.773a.356.356,0,0,1,0,.1,11.469,11.469,0,0,0,1.212-1.976,1.083,1.083,0,0,0-.079-.386,4.391,4.391,0,0,0-.36-.536,2.358,2.358,0,0,1-.211-.606,2.233,2.233,0,0,1-.053-.694c.018-.009.044-.026.061-.035a1.458,1.458,0,0,1,.483.439,1.37,1.37,0,0,1,.264.6c.035.228,0,.509.044.729.009.044.026.079.035.123a11.591,11.591,0,0,0,.7-2.126,1.072,1.072,0,0,0-.176-.422,3.342,3.342,0,0,0-.457-.4,1.777,1.777,0,0,1-.316-.509,1.968,1.968,0,0,1-.176-.632l.053-.053a1.315,1.315,0,0,1,.536.29,1.362,1.362,0,0,1,.369.483c.079.2.1.465.184.659a.728.728,0,0,0,.079.141A11.37,11.37,0,0,0,312,116.14a.96.96,0,0,0-.29-.43,3.4,3.4,0,0,0-.5-.263,1.308,1.308,0,0,1-.386-.4,1.87,1.87,0,0,1-.281-.562c.009-.018.026-.044.035-.061a1.159,1.159,0,0,1,.562.141,1.079,1.079,0,0,1,.43.369c.114.176.176.413.3.58a.533.533,0,0,0,.141.141,12.545,12.545,0,0,0-.263-2.134.046.046,0,0,1-.018-.035,1.092,1.092,0,0,0-.4-.4,3.427,3.427,0,0,0-.518-.123,1.275,1.275,0,0,1-.439-.29,1.891,1.891,0,0,1-.369-.474c.009-.026.018-.044.026-.07a1.04,1.04,0,0,1,.545,0,1,1,0,0,1,.465.246c.141.141.246.351.386.474a.688.688,0,0,0,.193.132,11.762,11.762,0,0,0-.747-2.055c-.009.009-.009.018-.018.026l-.079-.079a.983.983,0,0,0-.448-.29,3.072,3.072,0,0,0-.492.009,1.069,1.069,0,0,1-.457-.184,1.733,1.733,0,0,1-.439-.386.171.171,0,0,1,.009-.07.979.979,0,0,1,.966.009c.158.105.3.29.448.378a.724.724,0,0,0,.228.088.079.079,0,0,0-.009-.044,12.221,12.221,0,0,0-1.95-2.67,12.26,12.26,0,0,1,1.915,2.371c0-.026-.009-.053-.009-.079a3.629,3.629,0,0,1,0-.536,1.726,1.726,0,0,1,.4-.931l.079.026a2.414,2.414,0,0,1,.334,1.238,1.871,1.871,0,0,1-.105.509,1.167,1.167,0,0,1-.228.439.37.37,0,0,0-.044.061,12.091,12.091,0,0,1,.755,1.774v-.018a3.653,3.653,0,0,1,.141-.553,2.129,2.129,0,0,1,.624-.9c.026.018.044.026.07.044a2.717,2.717,0,0,1,.018,1.353,1.881,1.881,0,0,1-.237.5,1.561,1.561,0,0,1-.342.413l-.009.009a11.706,11.706,0,0,1,.325,1.827,3.731,3.731,0,0,1,.272-.527,2.45,2.45,0,0,1,.852-.817l.061.061a2.913,2.913,0,0,1-.334,1.405,2.525,2.525,0,0,1-.369.474,1.538,1.538,0,0,1-.422.334,11.576,11.576,0,0,1-.088,1.827c.123-.158.246-.316.378-.457a2.841,2.841,0,0,1,1.063-.685c.018.026.026.044.044.07a3.058,3.058,0,0,1-.694,1.37,2.452,2.452,0,0,1-.5.413,1.885,1.885,0,0,1-.457.237,12.43,12.43,0,0,1-.492,1.757c.158-.123.316-.255.483-.36a3.44,3.44,0,0,1,1.265-.5l.026.079a3.513,3.513,0,0,1-1.063,1.265,3.254,3.254,0,0,1-.624.325,1.917,1.917,0,0,1-.474.132,13.832,13.832,0,0,1-.887,1.616c.184-.088.378-.184.562-.255a3.92,3.92,0,0,1,1.449-.263c0,.026.009.061.009.088a3.431,3.431,0,0,1-2.169,1.274,2.872,2.872,0,0,1-.474.035,12.756,12.756,0,0,1-.852.975l-.483-.483a11.081,11.081,0,0,0,.975-1.063,1.176,1.176,0,0,0,0-.351,4.166,4.166,0,0,0-.228-.659,2.274,2.274,0,0,1-.061-.694,3.215,3.215,0,0,1,.1-.738C309.182,121.12,309.208,121.112,309.225,121.1Z" transform="translate(-293.416 -107.7)" fill="#ff8300"/>
    </g>
    <g id="Group_4610" data-name="Group 4610" transform="translate(16.17 11.031)">
      <path id="Path_37166" data-name="Path 37166" d="M226.327,155.13a.64.64,0,0,0,.316.4,1.308,1.308,0,0,0,.606.114v.378c-1.3-.044-2.134-.07-2.5-.07-.43,0-1.546.026-3.346.07v-.378a1.776,1.776,0,0,0,1.177-.325,1.48,1.48,0,0,0,.386-1.168v-4.471a4.181,4.181,0,0,0-.141-1.282.828.828,0,0,0-.457-.545,2.672,2.672,0,0,0-.966-.132v-.4a17.225,17.225,0,0,0,2.863-.237,6.362,6.362,0,0,0,1.959-.685v7.949A2.364,2.364,0,0,0,226.327,155.13Z" transform="translate(-221.4 -146.4)" fill="#ff8300"/>
    </g>
  </g>
</svg>
