<svg xmlns="http://www.w3.org/2000/svg" width="37.516" height="40.907" viewBox="0 0 37.516 40.907">
  <g id="Silver_Medal_Virtual_Piano" data-name="Silver Medal, Virtual Piano" transform="translate(0 0)">
    <path id="Path_37167" data-name="Path 37167" d="M47.387,201.5,37.7,219.764l8.8-.815,4.258,7.744,9.687-18.255Z" transform="translate(-37.7 -185.786)" fill="#ff8300"/>
    <g id="Group_4611" data-name="Group 4611" transform="translate(8.007 15.714)">
      <path id="Path_37168" data-name="Path 37168" d="M132.816,252.673a1.241,1.241,0,0,0-.581-1.587l-.555-.295a1.192,1.192,0,0,1,1.145-2.09l1.578.833a1,1,0,0,0,1.353-.416l.035-.078a.939.939,0,0,0-.364-1.327l-4.709-2.5a1.242,1.242,0,0,1-.59-1.587,1.188,1.188,0,0,1,1.639-.546l4.371,2.324a1,1,0,0,0,1.353-.416l.026-.061.009-.017a1.04,1.04,0,0,0-.434-1.422l-2.454-1.3a1.237,1.237,0,0,1-.581-1.6,1.2,1.2,0,0,1,1.639-.546l2.706,1.44a1.009,1.009,0,0,0,1.37-.468c0-.009,0-.009.009-.017s0-.009.009-.017a1.01,1.01,0,0,0-.382-1.4l-2.923-1.552a1.239,1.239,0,0,1-.581-1.578,1.188,1.188,0,0,1,1.639-.546l7.215,3.824-9.678,18.255-2.671-4.856A1.056,1.056,0,0,0,132.816,252.673Z" transform="translate(-130.025 -232.796)" fill="#ff8300"/>
      <path id="Path_37169" data-name="Path 37169" d="M220.96,201.5l9.7,18.264-8.8-.815-4.267,7.744L207.9,208.438Z" transform="translate(-201.146 -201.5)" fill="#ff8300"/>
    </g>
    <path id="Path_37170" data-name="Path 37170" d="M219.942,252.582a1.241,1.241,0,0,1,.581-1.587l.555-.295a1.192,1.192,0,0,0-1.145-2.09l-1.578.833a1,1,0,0,1-1.353-.416l-.035-.078a.939.939,0,0,1,.364-1.327l4.718-2.506a1.242,1.242,0,0,0,.59-1.587,1.188,1.188,0,0,0-1.639-.546l-4.371,2.324a1,1,0,0,1-1.353-.416l-.026-.061-.009-.017a1.04,1.04,0,0,1,.434-1.422l2.454-1.3a1.237,1.237,0,0,0,.581-1.6,1.2,1.2,0,0,0-1.639-.546l-2.714,1.44a1.009,1.009,0,0,1-1.37-.468c0-.009,0-.009-.009-.017s0-.009-.009-.017a1.01,1.01,0,0,1,.382-1.4l2.923-1.552a1.239,1.239,0,0,0,.581-1.578,1.188,1.188,0,0,0-1.639-.546L208,239.634l9.7,18.264,2.671-4.856A1.041,1.041,0,0,1,219.942,252.582Z" transform="translate(-193.231 -216.991)" fill="#ff8300"/>
    <ellipse id="Ellipse_2340" data-name="Ellipse 2340" cx="16.191" cy="16.191" rx="16.191" ry="16.191" transform="translate(2.567 0)" fill="#bdc3c7"/>
    <path id="Path_37171" data-name="Path 37171" d="M132.26,96.82a11.56,11.56,0,1,1,11.56-11.56A11.573,11.573,0,0,1,132.26,96.82Z" transform="translate(-113.502 -69.069)" fill="#ecf0f1"/>
    <g id="Group_4612" data-name="Group 4612" transform="translate(8.707 7.536)">
      <path id="Path_37172" data-name="Path 37172" d="M142.575,120.434a1.52,1.52,0,0,0-.373.572,1.592,1.592,0,0,0-.121.676c.017.252.121.52.13.763a.352.352,0,0,0,0,.1,11.329,11.329,0,0,1-1.2-1.951,1.068,1.068,0,0,1,.078-.382,4.339,4.339,0,0,1,.356-.529,2.329,2.329,0,0,0,.208-.6,2.2,2.2,0,0,0,.052-.685c-.017-.009-.043-.026-.061-.035a1.44,1.44,0,0,0-.477.434,1.352,1.352,0,0,0-.26.59c-.035.225,0,.5-.043.72-.009.043-.026.078-.035.121a11.446,11.446,0,0,1-.694-2.1,1.059,1.059,0,0,1,.173-.416,3.3,3.3,0,0,1,.451-.4,1.753,1.753,0,0,0,.312-.5,1.943,1.943,0,0,0,.173-.624l-.052-.052a1.3,1.3,0,0,0-.529.286,1.345,1.345,0,0,0-.364.477c-.078.2-.1.46-.182.65a.718.718,0,0,1-.078.139,11.226,11.226,0,0,1-.208-2.151.947.947,0,0,1,.286-.425,3.351,3.351,0,0,1,.494-.26,1.292,1.292,0,0,0,.382-.4,1.847,1.847,0,0,0,.277-.555c-.009-.017-.026-.043-.035-.061a1.144,1.144,0,0,0-.555.139,1.066,1.066,0,0,0-.425.364c-.113.173-.173.408-.295.572a.528.528,0,0,1-.139.139,12.386,12.386,0,0,1,.26-2.107.045.045,0,0,0,.017-.035,1.078,1.078,0,0,1,.39-.4,3.38,3.38,0,0,1,.512-.121,1.259,1.259,0,0,0,.434-.286,1.866,1.866,0,0,0,.364-.468c-.009-.026-.017-.043-.026-.069a1.027,1.027,0,0,0-.538,0,.987.987,0,0,0-.46.243c-.139.139-.243.347-.382.468a.678.678,0,0,1-.191.13,11.646,11.646,0,0,1,.746-2.029c.009.009.009.017.017.026l.078-.078a.97.97,0,0,1,.442-.286,3.027,3.027,0,0,1,.486.009,1.056,1.056,0,0,0,.451-.182,1.711,1.711,0,0,0,.434-.382.169.169,0,0,0-.009-.069.967.967,0,0,0-.954.009c-.156.1-.295.286-.442.373a.715.715,0,0,1-.225.087.078.078,0,0,1,.009-.043,12.065,12.065,0,0,1,1.925-2.636,12.1,12.1,0,0,0-1.891,2.341c0-.026.009-.052.009-.078a3.594,3.594,0,0,0,0-.529,1.7,1.7,0,0,0-.39-.919l-.078.026a2.384,2.384,0,0,0-.33,1.223,1.851,1.851,0,0,0,.1.5,1.153,1.153,0,0,0,.225.434.367.367,0,0,1,.043.061,11.94,11.94,0,0,0-.746,1.752V112a5.592,5.592,0,0,0-.139-.546,2.1,2.1,0,0,0-.616-.893.3.3,0,0,1-.069.043,2.575,2.575,0,0,0-.009,1.336,1.856,1.856,0,0,0,.234.494,1.543,1.543,0,0,0,.338.408l.009.009a11.558,11.558,0,0,0-.321,1.8,3.685,3.685,0,0,0-.269-.52,2.419,2.419,0,0,0-.841-.807l-.061.061a2.877,2.877,0,0,0,.33,1.388,2.5,2.5,0,0,0,.364.468,1.519,1.519,0,0,0,.416.33,11.428,11.428,0,0,0,.087,1.8c-.121-.156-.243-.312-.373-.451a2.8,2.8,0,0,0-1.049-.676c-.017.026-.026.043-.043.069a3.02,3.02,0,0,0,.685,1.353,2.424,2.424,0,0,0,.494.408,1.861,1.861,0,0,0,.451.234,12.28,12.28,0,0,0,.486,1.734c-.156-.121-.312-.251-.477-.356a3.4,3.4,0,0,0-1.249-.494l-.026.078a3.468,3.468,0,0,0,1.049,1.249,3.213,3.213,0,0,0,.616.321,1.891,1.891,0,0,0,.468.13,13.661,13.661,0,0,0,.876,1.6c-.182-.087-.373-.182-.555-.251a3.869,3.869,0,0,0-1.431-.26c0,.026-.009.061-.009.087a3.389,3.389,0,0,0,2.142,1.257,2.838,2.838,0,0,0,.468.035,12.607,12.607,0,0,0,.841.963l.477-.477a10.951,10.951,0,0,1-.963-1.049,1.163,1.163,0,0,1,0-.347,4.116,4.116,0,0,1,.225-.65,2.246,2.246,0,0,0,.061-.685,3.174,3.174,0,0,0-.1-.728A.207.207,0,0,0,142.575,120.434Z" transform="translate(-138.1 -107.2)" fill="#ff8300"/>
      <path id="Path_37173" data-name="Path 37173" d="M309.615,120.434a1.521,1.521,0,0,1,.373.572,1.591,1.591,0,0,1,.121.676c-.017.252-.121.52-.13.763a.352.352,0,0,1,0,.1,11.331,11.331,0,0,0,1.2-1.951,1.069,1.069,0,0,0-.078-.382,4.339,4.339,0,0,0-.356-.529,2.329,2.329,0,0,1-.208-.6,2.2,2.2,0,0,1-.052-.685c.017-.009.043-.026.061-.035a1.439,1.439,0,0,1,.477.434,1.351,1.351,0,0,1,.26.59c.035.225,0,.5.043.72.009.043.026.078.035.121a11.446,11.446,0,0,0,.694-2.1,1.059,1.059,0,0,0-.173-.416,3.3,3.3,0,0,0-.451-.4,1.755,1.755,0,0,1-.312-.5,1.942,1.942,0,0,1-.173-.624l.052-.052a1.3,1.3,0,0,1,.529.286,1.345,1.345,0,0,1,.364.477c.078.2.1.46.182.65a.721.721,0,0,0,.078.139,11.224,11.224,0,0,0,.208-2.151.947.947,0,0,0-.286-.425,3.35,3.35,0,0,0-.494-.26,1.293,1.293,0,0,1-.382-.4,1.847,1.847,0,0,1-.278-.555c.009-.017.026-.043.035-.061a1.144,1.144,0,0,1,.555.139,1.065,1.065,0,0,1,.425.364c.113.173.173.408.295.572a.529.529,0,0,0,.139.139,12.387,12.387,0,0,0-.26-2.107.045.045,0,0,1-.017-.035,1.078,1.078,0,0,0-.39-.4,3.382,3.382,0,0,0-.512-.121,1.258,1.258,0,0,1-.434-.286,1.865,1.865,0,0,1-.364-.468c.009-.026.017-.043.026-.069a1.027,1.027,0,0,1,.538,0,.987.987,0,0,1,.46.243c.139.139.243.347.382.468a.677.677,0,0,0,.191.13,11.612,11.612,0,0,0-.737-2.029c-.009.009-.009.017-.017.026l-.078-.078a.97.97,0,0,0-.442-.286,3.028,3.028,0,0,0-.486.009,1.056,1.056,0,0,1-.451-.182,1.711,1.711,0,0,1-.434-.382.17.17,0,0,1,.009-.069.967.967,0,0,1,.954.009c.156.1.295.286.442.373a.716.716,0,0,0,.226.087.078.078,0,0,0-.009-.043,12.063,12.063,0,0,0-1.925-2.636,12.1,12.1,0,0,1,1.891,2.341c0-.026-.009-.052-.009-.078a3.592,3.592,0,0,1,0-.529,1.7,1.7,0,0,1,.39-.919l.078.026a2.383,2.383,0,0,1,.33,1.223,1.851,1.851,0,0,1-.1.5,1.152,1.152,0,0,1-.225.434.367.367,0,0,0-.043.061,11.947,11.947,0,0,1,.746,1.752V112a3.592,3.592,0,0,1,.139-.546,2.1,2.1,0,0,1,.616-.893c.026.017.043.026.069.043a2.682,2.682,0,0,1,.017,1.336,1.854,1.854,0,0,1-.234.494,1.542,1.542,0,0,1-.338.408l-.009.009a11.558,11.558,0,0,1,.321,1.8,3.693,3.693,0,0,1,.269-.52,2.419,2.419,0,0,1,.841-.807l.061.061a2.877,2.877,0,0,1-.33,1.388,2.494,2.494,0,0,1-.364.468,1.519,1.519,0,0,1-.416.33,11.419,11.419,0,0,1-.087,1.8c.121-.156.243-.312.373-.451a2.805,2.805,0,0,1,1.049-.676c.017.026.026.043.043.069a3.02,3.02,0,0,1-.685,1.353,2.423,2.423,0,0,1-.494.408,1.861,1.861,0,0,1-.451.234,12.294,12.294,0,0,1-.486,1.734c.156-.121.312-.251.477-.356a3.4,3.4,0,0,1,1.249-.494l.026.078a3.468,3.468,0,0,1-1.049,1.249,3.214,3.214,0,0,1-.616.321,1.891,1.891,0,0,1-.468.13,13.668,13.668,0,0,1-.876,1.6c.182-.087.373-.182.555-.251a3.869,3.869,0,0,1,1.431-.26c0,.026.009.061.009.087a3.389,3.389,0,0,1-2.142,1.257,2.838,2.838,0,0,1-.468.035,12.617,12.617,0,0,1-.841.963l-.477-.477a10.955,10.955,0,0,0,.963-1.049,1.163,1.163,0,0,0,0-.347,4.123,4.123,0,0,0-.225-.65,2.243,2.243,0,0,1-.061-.685,3.172,3.172,0,0,1,.1-.728C309.572,120.451,309.589,120.443,309.615,120.434Z" transform="translate(-293.996 -107.2)" fill="#ff8300"/>
    </g>
    <g id="Group_4613" data-name="Group 4613" transform="translate(14.5 11.257)">
      <path id="Path_37174" data-name="Path 37174" d="M206.7,150.7a5.891,5.891,0,0,1,2.827-.6,4.874,4.874,0,0,1,1.708.269,2.4,2.4,0,0,1,1.119.789,2.014,2.014,0,0,1,.39,1.24,2.277,2.277,0,0,1-.815,1.769,13.889,13.889,0,0,1-2.281,1.587,12.5,12.5,0,0,0-1.934,1.275h4.059a2.917,2.917,0,0,0,.728-.069.519.519,0,0,0,.33-.217,1.292,1.292,0,0,0,.147-.46h.416q0,2.3.078,3.46a20.767,20.767,0,0,0-2.671-.087H204.9v-.373q.221-.221,1.483-1.353a11.852,11.852,0,0,0,2.055-2.35,4.559,4.559,0,0,0,.78-2.48,1.935,1.935,0,0,0-.39-1.336,1.578,1.578,0,0,0-1.205-.425,2.836,2.836,0,0,0-1.336.3,3.526,3.526,0,0,0-1.067.9l-.3-.217A4.968,4.968,0,0,1,206.7,150.7Z" transform="translate(-204.9 -150.1)" fill="#ff8300"/>
    </g>
  </g>
</svg>
