<svg xmlns="http://www.w3.org/2000/svg" width="37.889" height="41.323" viewBox="0 0 37.889 41.323">
  <g id="Bronze_Medal_Virtual_Piano" data-name="Bronze Medal, Virtual Piano" transform="translate(0 0)">
    <path id="Path_37175" data-name="Path 37175" d="M54.886,205.9,45.1,224.35l8.883-.823,4.31,7.823,9.786-18.45Z" transform="translate(-45.1 -190.026)" fill="#ff8300"/>
    <g id="Group_4614" data-name="Group 4614" transform="translate(8.079 15.874)">
      <path id="Path_37176" data-name="Path 37176" d="M140.153,257.245a1.254,1.254,0,0,0-.587-1.6l-.561-.3a1.2,1.2,0,0,1,1.156-2.111l1.594.841a1.011,1.011,0,0,0,1.367-.421l.035-.079a.949.949,0,0,0-.368-1.34l-4.766-2.523a1.255,1.255,0,0,1-.6-1.6,1.2,1.2,0,0,1,1.656-.552L143.5,249.9a1.011,1.011,0,0,0,1.367-.42l.026-.061.009-.018a1.051,1.051,0,0,0-.438-1.437l-2.479-1.314a1.25,1.25,0,0,1-.587-1.612,1.207,1.207,0,0,1,1.656-.552l2.733,1.454a1.019,1.019,0,0,0,1.384-.473c0-.009,0-.009.009-.018s0-.009.009-.018a1.02,1.02,0,0,0-.385-1.41l-2.935-1.568a1.252,1.252,0,0,1-.587-1.594,1.2,1.2,0,0,1,1.656-.552l7.289,3.863-9.794,18.441-2.7-4.906A1.137,1.137,0,0,0,140.153,257.245Z" transform="translate(-137.325 -237.166)" fill="#ff8300"/>
      <path id="Path_37177" data-name="Path 37177" d="M228.493,205.9l9.785,18.45-8.892-.823-4.3,7.823L215.3,212.9Z" transform="translate(-208.469 -205.9)" fill="#ff8300"/>
    </g>
    <path id="Path_37178" data-name="Path 37178" d="M227.281,257.154a1.254,1.254,0,0,1,.587-1.6l.561-.3a1.2,1.2,0,0,0-1.156-2.111l-1.594.841a1.011,1.011,0,0,1-1.367-.421l-.035-.079a.949.949,0,0,1,.368-1.34l4.766-2.532a1.255,1.255,0,0,0,.6-1.6,1.2,1.2,0,0,0-1.656-.552l-4.415,2.348a1.011,1.011,0,0,1-1.367-.421l-.026-.061-.009-.018a1.051,1.051,0,0,1,.438-1.437l2.479-1.314a1.25,1.25,0,0,0,.587-1.612,1.207,1.207,0,0,0-1.656-.552l-2.76,1.454a1.019,1.019,0,0,1-1.384-.473c0-.009,0-.009-.009-.018s0-.009-.009-.018a1.02,1.02,0,0,1,.385-1.41l2.952-1.568a1.252,1.252,0,0,0,.587-1.594,1.2,1.2,0,0,0-1.656-.552l-7.289,3.863,9.794,18.45,2.7-4.906A1.118,1.118,0,0,1,227.281,257.154Z" transform="translate(-200.298 -221.201)" fill="#ff8300"/>
    <ellipse id="Ellipse_2341" data-name="Ellipse 2341" cx="16.356" cy="16.356" rx="16.356" ry="16.356" transform="translate(2.584 0)" fill="#d88b56"/>
    <path id="Path_37179" data-name="Path 37179" d="M139.678,101.455a11.678,11.678,0,1,1,11.678-11.678A11.691,11.691,0,0,1,139.678,101.455Z" transform="translate(-120.737 -73.422)" fill="#f2dcd1"/>
    <g id="Group_4615" data-name="Group 4615" transform="translate(8.796 7.613)">
      <path id="Path_37180" data-name="Path 37180" d="M150.02,124.969a1.536,1.536,0,0,0-.377.578,1.609,1.609,0,0,0-.123.683c.018.254.123.526.131.771a.354.354,0,0,0,0,.1,11.445,11.445,0,0,1-1.209-1.971,1.079,1.079,0,0,1,.079-.385,4.379,4.379,0,0,1,.359-.534,2.354,2.354,0,0,0,.21-.6,2.225,2.225,0,0,0,.053-.692c-.018-.009-.044-.026-.061-.035a1.454,1.454,0,0,0-.482.438,1.366,1.366,0,0,0-.263.6c-.035.228,0,.508-.044.727-.009.044-.026.079-.035.123a11.564,11.564,0,0,1-.7-2.12,1.069,1.069,0,0,1,.175-.421,3.328,3.328,0,0,1,.456-.4,1.772,1.772,0,0,0,.315-.508,1.964,1.964,0,0,0,.175-.631l-.053-.053a1.311,1.311,0,0,0-.534.289,1.359,1.359,0,0,0-.368.482c-.079.2-.1.464-.184.657a.725.725,0,0,1-.079.14,11.34,11.34,0,0,1-.21-2.173.956.956,0,0,1,.289-.429,3.384,3.384,0,0,1,.5-.263,1.3,1.3,0,0,0,.385-.4,1.865,1.865,0,0,0,.28-.561c-.009-.018-.026-.044-.035-.061a1.156,1.156,0,0,0-.561.14,1.076,1.076,0,0,0-.429.368c-.114.175-.175.412-.3.578a.534.534,0,0,1-.14.14,12.512,12.512,0,0,1,.263-2.129.045.045,0,0,0,.018-.035,1.089,1.089,0,0,1,.394-.4,3.416,3.416,0,0,1,.517-.123,1.271,1.271,0,0,0,.438-.289,1.885,1.885,0,0,0,.368-.473c-.009-.026-.018-.044-.026-.07a1.037,1.037,0,0,0-.543,0,1,1,0,0,0-.464.245c-.14.14-.245.35-.385.473a.685.685,0,0,1-.193.131,11.768,11.768,0,0,1,.753-2.05c.009.009.009.018.018.026l.079-.079a.98.98,0,0,1,.447-.289,3.058,3.058,0,0,1,.491.009,1.067,1.067,0,0,0,.456-.184,1.729,1.729,0,0,0,.438-.385.171.171,0,0,0-.009-.07.977.977,0,0,0-.964.009c-.158.105-.3.289-.447.377a.723.723,0,0,1-.228.088.079.079,0,0,1,.009-.044,12.188,12.188,0,0,1,1.945-2.663,12.227,12.227,0,0,0-1.91,2.365c0-.026.009-.053.009-.079a3.629,3.629,0,0,0,0-.534,1.722,1.722,0,0,0-.394-.929l-.079.026a2.408,2.408,0,0,0-.333,1.235,1.868,1.868,0,0,0,.105.508,1.164,1.164,0,0,0,.228.438.373.373,0,0,1,.044.061,12.06,12.06,0,0,0-.753,1.77v-.018a5.65,5.65,0,0,0-.14-.552,2.124,2.124,0,0,0-.622-.9.307.307,0,0,1-.07.044,2.6,2.6,0,0,0-.009,1.349,1.874,1.874,0,0,0,.237.5,1.558,1.558,0,0,0,.342.412l.009.009a11.675,11.675,0,0,0-.324,1.822,3.723,3.723,0,0,0-.272-.526,2.444,2.444,0,0,0-.85-.815l-.061.061a2.905,2.905,0,0,0,.333,1.4,2.521,2.521,0,0,0,.368.473,1.534,1.534,0,0,0,.421.333,11.544,11.544,0,0,0,.088,1.822c-.123-.158-.245-.315-.377-.456a2.833,2.833,0,0,0-1.06-.683c-.018.026-.026.044-.044.07a3.051,3.051,0,0,0,.692,1.367,2.449,2.449,0,0,0,.5.412,1.879,1.879,0,0,0,.456.237,12.4,12.4,0,0,0,.491,1.752c-.158-.123-.315-.254-.482-.359a3.433,3.433,0,0,0-1.262-.5l-.026.079a3.5,3.5,0,0,0,1.06,1.262,3.245,3.245,0,0,0,.622.324,1.911,1.911,0,0,0,.473.131,13.8,13.8,0,0,0,.885,1.612c-.184-.088-.377-.184-.561-.254a3.909,3.909,0,0,0-1.445-.263c0,.026-.009.061-.009.088a3.423,3.423,0,0,0,2.164,1.27,2.866,2.866,0,0,0,.473.035,12.731,12.731,0,0,0,.85.972l.482-.482a11.063,11.063,0,0,1-.972-1.06,1.173,1.173,0,0,1,0-.35,4.158,4.158,0,0,1,.228-.657,2.269,2.269,0,0,0,.061-.692,3.207,3.207,0,0,0-.1-.736A.427.427,0,0,0,150.02,124.969Z" transform="translate(-145.5 -111.6)" fill="#ff8300"/>
      <path id="Path_37181" data-name="Path 37181" d="M317.023,124.969a1.536,1.536,0,0,1,.377.578,1.608,1.608,0,0,1,.123.683c-.018.254-.123.526-.131.771a.355.355,0,0,1,0,.1,11.447,11.447,0,0,0,1.209-1.971,1.079,1.079,0,0,0-.079-.385,4.379,4.379,0,0,0-.359-.534,2.353,2.353,0,0,1-.21-.6,2.224,2.224,0,0,1-.053-.692c.018-.009.044-.026.061-.035a1.454,1.454,0,0,1,.482.438,1.366,1.366,0,0,1,.263.6c.035.228,0,.508.044.727.009.044.026.079.035.123a11.564,11.564,0,0,0,.7-2.12,1.069,1.069,0,0,0-.175-.421,3.33,3.33,0,0,0-.456-.4,1.772,1.772,0,0,1-.315-.508,1.965,1.965,0,0,1-.175-.631l.053-.053a1.311,1.311,0,0,1,.534.289,1.358,1.358,0,0,1,.368.482c.079.2.1.464.184.657a.726.726,0,0,0,.079.14,11.339,11.339,0,0,0,.21-2.173.957.957,0,0,0-.289-.429,3.385,3.385,0,0,0-.5-.263,1.3,1.3,0,0,1-.385-.4,1.865,1.865,0,0,1-.28-.561c.009-.018.026-.044.035-.061a1.156,1.156,0,0,1,.561.14,1.076,1.076,0,0,1,.429.368c.114.175.175.412.3.578a.533.533,0,0,0,.14.14,12.515,12.515,0,0,0-.263-2.129.045.045,0,0,1-.018-.035,1.09,1.09,0,0,0-.394-.4,3.417,3.417,0,0,0-.517-.123,1.271,1.271,0,0,1-.438-.289,1.884,1.884,0,0,1-.368-.473c.009-.026.018-.044.026-.07a1.037,1.037,0,0,1,.543,0,1,1,0,0,1,.464.245c.14.14.245.35.385.473a.684.684,0,0,0,.193.131,11.732,11.732,0,0,0-.745-2.05c-.009.009-.009.018-.018.026l-.079-.079a.98.98,0,0,0-.447-.289,3.058,3.058,0,0,0-.491.009,1.067,1.067,0,0,1-.456-.184,1.728,1.728,0,0,1-.438-.385.171.171,0,0,1,.009-.07.977.977,0,0,1,.964.009c.158.105.3.289.447.377a.723.723,0,0,0,.228.088.079.079,0,0,0-.009-.044,12.188,12.188,0,0,0-1.945-2.663,12.222,12.222,0,0,1,1.91,2.365c0-.026-.009-.053-.009-.079a3.627,3.627,0,0,1,0-.534,1.722,1.722,0,0,1,.394-.929l.079.026a2.407,2.407,0,0,1,.333,1.235,1.87,1.87,0,0,1-.105.508,1.165,1.165,0,0,1-.228.438.373.373,0,0,0-.044.061,12.064,12.064,0,0,1,.753,1.77v-.018a3.641,3.641,0,0,1,.14-.552,2.124,2.124,0,0,1,.622-.9c.026.018.044.026.07.044a2.711,2.711,0,0,1,.018,1.349,1.874,1.874,0,0,1-.237.5,1.559,1.559,0,0,1-.342.412l-.009.009a11.671,11.671,0,0,1,.324,1.822,3.72,3.72,0,0,1,.272-.526,2.444,2.444,0,0,1,.85-.815l.061.061a2.906,2.906,0,0,1-.333,1.4,2.521,2.521,0,0,1-.368.473,1.534,1.534,0,0,1-.421.333,11.549,11.549,0,0,1-.088,1.822c.123-.158.245-.315.377-.456a2.834,2.834,0,0,1,1.06-.683c.018.026.026.044.044.07a3.051,3.051,0,0,1-.692,1.367,2.449,2.449,0,0,1-.5.412,1.88,1.88,0,0,1-.456.237,12.4,12.4,0,0,1-.491,1.752c.158-.123.315-.254.482-.359a3.433,3.433,0,0,1,1.262-.5l.026.079a3.5,3.5,0,0,1-1.06,1.262,3.248,3.248,0,0,1-.622.324,1.912,1.912,0,0,1-.473.131,13.8,13.8,0,0,1-.885,1.612c.184-.088.377-.184.561-.254a3.909,3.909,0,0,1,1.445-.263c0,.026.009.061.009.088a3.423,3.423,0,0,1-2.164,1.27,2.865,2.865,0,0,1-.473.035,12.734,12.734,0,0,1-.85.972l-.482-.482a11.073,11.073,0,0,0,.972-1.06,1.177,1.177,0,0,0,0-.35,4.161,4.161,0,0,0-.228-.657,2.268,2.268,0,0,1-.061-.692,3.2,3.2,0,0,1,.1-.736C316.98,124.986,317,124.977,317.023,124.969Z" transform="translate(-301.246 -111.6)" fill="#ff8300"/>
    </g>
    <g id="Group_4616" data-name="Group 4616" transform="translate(15.024 10.057)">
      <path id="Path_37182" data-name="Path 37182" d="M218.308,140.113a4.654,4.654,0,0,1,2.549-.613,5.79,5.79,0,0,1,1.77.254,2.776,2.776,0,0,1,1.218.727,1.621,1.621,0,0,1,.447,1.121,2.029,2.029,0,0,1-.5,1.3,4.092,4.092,0,0,1-1.472,1.06,8.648,8.648,0,0,1-2.365.639c.149-.009.368-.018.657-.018a7.133,7.133,0,0,1,2.278.333,3.433,3.433,0,0,1,1.516.964,2.206,2.206,0,0,1,.534,1.489,3.017,3.017,0,0,1-1.235,2.365,8.766,8.766,0,0,1-3.171,1.594,13.961,13.961,0,0,1-3.933.569v-.377a6.476,6.476,0,0,0,2.3-.534,4.87,4.87,0,0,0,1.919-1.419,3.522,3.522,0,0,0,.534-3.434,2.073,2.073,0,0,0-.648-.876,1.806,1.806,0,0,0-1.007-.368c-.245.105-.438.184-.569.228a1.322,1.322,0,0,1-.421.07.444.444,0,0,1-.272-.061.245.245,0,0,1-.088-.219.341.341,0,0,1,.184-.315.911.911,0,0,1,.464-.105,2.508,2.508,0,0,1,.324.026c.123.018.228.026.315.035a2.715,2.715,0,0,0,1.4-2.3,1.517,1.517,0,0,0-.429-1.183,1.709,1.709,0,0,0-1.2-.394,2.762,2.762,0,0,0-1.314.333,3.064,3.064,0,0,0-1.034.955l-.324-.184A4.93,4.93,0,0,1,218.308,140.113Z" transform="translate(-216.6 -139.5)" fill="#ff8300"/>
    </g>
  </g>
</svg>
