<svg id="Capa_1" enable-background="new 0 0 510 510" height="512" viewBox="0 0 510 510" width="512" xmlns="http://www.w3.org/2000/svg"><g><path d="m377.273 240.904c10.943-1.557 14.314-.638 72.727-.904 4.32 0 8.567.313 12.727.904-5.931-17.927-22.837-30.904-42.727-30.904s-36.796 12.977-42.727 30.904z" fill="#fff" opacity="0.34"/><path d="m120 240c33.084 0 60-26.916 60-60v-30h-180v30c0 33.084 26.916 60 60 60z" fill="#fff" opacity="0.34"/><path d="m30 0h120v45h-120z" fill="#fff" opacity="0.34"/><path d="m0 75h180v45h-180z" fill="#fff" opacity="0.34"/><path d="m132.727 269.096c-10.944 1.555-14.314.637-72.727.904-4.32 0-8.567-.313-12.727-.904 5.931 17.927 22.837 30.904 42.727 30.904s36.796-12.977 42.727-30.904z" fill="#fff" opacity="0.34"/><path d="m450 270h-60c-33.084 0-60 26.916-60 60v30h180v-30c0-33.084-26.916-60-60-60z" fill="#fff" opacity="0.34"/><path d="m360 465h120v45h-120z" fill="#fff" opacity="0.34"/><path d="m330 390h180v45h-180z" fill="#fff" opacity="0.34"/><path d="m405 97.5v84.007c9.692-1.969 19.915-2.049 30 0v-84.007c0-53.762-43.738-97.5-97.5-97.5s-97.5 43.738-97.5 97.5v315c0 37.22-30.28 67.5-67.5 67.5s-67.5-30.28-67.5-67.5v-84.009c-9.548 1.945-19.803 2.078-30 0v84.009c0 53.762 43.738 97.5 97.5 97.5s97.5-43.738 97.5-97.5v-315c0-37.22 30.28-67.5 67.5-67.5s67.5 30.28 67.5 67.5z" fill="#fff" opacity="0.34"/></g></svg>