<svg id="facebook_1_" data-name="facebook(1)" xmlns="http://www.w3.org/2000/svg" width="23.38" height="23.38" viewBox="0 0 23.38 23.38">
  <path id="Path_37131" data-name="Path 37131" d="M22.089,0H1.289A1.29,1.29,0,0,0,0,1.291v20.8A1.29,1.29,0,0,0,1.291,23.38h20.8a1.29,1.29,0,0,0,1.291-1.29h0V1.289A1.29,1.29,0,0,0,22.089,0Zm0,0" transform="translate(0 0)" fill="#4267b2"/>
  <path id="Path_37132" data-name="Path 37132" d="M213.69,97.173V88.132h3.048l.457-3.539h-3.5V82.339c0-1.022.284-1.719,1.75-1.719H217.3V77.463a24.975,24.975,0,0,0-2.723-.139c-2.694,0-4.538,1.644-4.538,4.664v2.6H207v3.539h3.037v9.041Zm0,0" transform="translate(-197.548 -73.793)" fill="#fff"/>
</svg>
