<svg xmlns="http://www.w3.org/2000/svg" width="1193" height="30" viewBox="0 0 1193 30">
  <g id="Group_4551" data-name="Group 4551" transform="translate(-39 -1645)" opacity="0.416">
    <g id="Group_4531" data-name="Group 4531" transform="translate(36 1635)">
      <rect id="Rectangle_1074" data-name="Rectangle 1074" width="3" height="30" transform="translate(36 10)" fill="#fafafa"/>
      <rect id="Rectangle_1075" data-name="Rectangle 1075" width="3" height="30" transform="translate(68 10)" fill="#fafafa"/>
      <rect id="Rectangle_1109" data-name="Rectangle 1109" width="3" height="30" transform="translate(3 10)" fill="#fafafa"/>
      <rect id="Rectangle_1110" data-name="Rectangle 1110" width="3" height="30" transform="translate(139 10)" fill="#fafafa"/>
      <rect id="Rectangle_1111" data-name="Rectangle 1111" width="3" height="30" transform="translate(173 10)" fill="#fafafa"/>
      <rect id="Rectangle_1112" data-name="Rectangle 1112" width="3" height="30" transform="translate(105 10)" fill="#fafafa"/>
      <rect id="Rectangle_1113" data-name="Rectangle 1113" width="3" height="30" transform="translate(241 10)" fill="#fafafa"/>
      <rect id="Rectangle_1114" data-name="Rectangle 1114" width="3" height="30" transform="translate(275 10)" fill="#fafafa"/>
      <rect id="Rectangle_1115" data-name="Rectangle 1115" width="3" height="30" transform="translate(207 10)" fill="#fafafa"/>
      <rect id="Rectangle_1116" data-name="Rectangle 1116" width="3" height="30" transform="translate(343 10)" fill="#fafafa"/>
      <rect id="Rectangle_1117" data-name="Rectangle 1117" width="3" height="30" transform="translate(377 10)" fill="#fafafa"/>
      <rect id="Rectangle_1118" data-name="Rectangle 1118" width="3" height="30" transform="translate(309 10)" fill="#fafafa"/>
      <rect id="Rectangle_1119" data-name="Rectangle 1119" width="3" height="30" transform="translate(445 10)" fill="#fafafa"/>
      <rect id="Rectangle_1120" data-name="Rectangle 1120" width="3" height="30" transform="translate(479 10)" fill="#fafafa"/>
      <rect id="Rectangle_1121" data-name="Rectangle 1121" width="3" height="30" transform="translate(411 10)" fill="#fafafa"/>
      <rect id="Rectangle_1122" data-name="Rectangle 1122" width="3" height="30" transform="translate(547 10)" fill="#fafafa"/>
      <rect id="Rectangle_1123" data-name="Rectangle 1123" width="3" height="30" transform="translate(581 10)" fill="#fafafa"/>
      <rect id="Rectangle_1124" data-name="Rectangle 1124" width="3" height="30" transform="translate(513 10)" fill="#fafafa"/>
      <rect id="Rectangle_1125" data-name="Rectangle 1125" width="3" height="30" transform="translate(649 10)" fill="#fafafa"/>
      <rect id="Rectangle_1126" data-name="Rectangle 1126" width="3" height="30" transform="translate(683 10)" fill="#fafafa"/>
      <rect id="Rectangle_1127" data-name="Rectangle 1127" width="3" height="30" transform="translate(615 10)" fill="#fafafa"/>
      <rect id="Rectangle_1128" data-name="Rectangle 1128" width="3" height="30" transform="translate(751 10)" fill="#fafafa"/>
      <rect id="Rectangle_1129" data-name="Rectangle 1129" width="3" height="30" transform="translate(785 10)" fill="#fafafa"/>
      <rect id="Rectangle_1130" data-name="Rectangle 1130" width="3" height="30" transform="translate(717 10)" fill="#fafafa"/>
      <rect id="Rectangle_1131" data-name="Rectangle 1131" width="3" height="30" transform="translate(853 10)" fill="#fafafa"/>
      <rect id="Rectangle_1132" data-name="Rectangle 1132" width="3" height="30" transform="translate(887 10)" fill="#fafafa"/>
      <rect id="Rectangle_1133" data-name="Rectangle 1133" width="3" height="30" transform="translate(819 10)" fill="#fafafa"/>
      <rect id="Rectangle_1134" data-name="Rectangle 1134" width="3" height="30" transform="translate(955 10)" fill="#fafafa"/>
      <rect id="Rectangle_1135" data-name="Rectangle 1135" width="3" height="30" transform="translate(989 10)" fill="#fafafa"/>
      <rect id="Rectangle_1136" data-name="Rectangle 1136" width="3" height="30" transform="translate(921 10)" fill="#fafafa"/>
      <rect id="Rectangle_1137" data-name="Rectangle 1137" width="3" height="30" transform="translate(1057 10)" fill="#fafafa"/>
      <rect id="Rectangle_1138" data-name="Rectangle 1138" width="3" height="30" transform="translate(1091 10)" fill="#fafafa"/>
      <rect id="Rectangle_1139" data-name="Rectangle 1139" width="3" height="30" transform="translate(1023 10)" fill="#fafafa"/>
      <rect id="Rectangle_1140" data-name="Rectangle 1140" width="3" height="30" transform="translate(1159 10)" fill="#fafafa"/>
      <rect id="Rectangle_1141" data-name="Rectangle 1141" width="3" height="30" transform="translate(1193 10)" fill="#fafafa"/>
      <rect id="Rectangle_1142" data-name="Rectangle 1142" width="3" height="30" transform="translate(1125 10)" fill="#fafafa"/>
    </g>
    <g id="Group_4532" data-name="Group 4532" transform="translate(53 1635)">
      <rect id="Rectangle_1074-2" data-name="Rectangle 1074" width="3" height="11" transform="translate(2 10)" fill="#919191"/>
      <rect id="Rectangle_1075-2" data-name="Rectangle 1075" width="3" height="11" transform="translate(35 10)" fill="#919191"/>
      <rect id="Rectangle_1143" data-name="Rectangle 1143" width="3" height="11" transform="translate(71 10)" fill="#919191"/>
      <rect id="Rectangle_1144" data-name="Rectangle 1144" width="3" height="11" transform="translate(139 10)" fill="#919191"/>
      <rect id="Rectangle_1145" data-name="Rectangle 1145" width="3" height="11" transform="translate(173 10)" fill="#919191"/>
      <rect id="Rectangle_1146" data-name="Rectangle 1146" width="3" height="11" transform="translate(241 10)" fill="#919191"/>
      <rect id="Rectangle_1147" data-name="Rectangle 1147" width="3" height="11" transform="translate(275 10)" fill="#919191"/>
      <rect id="Rectangle_1148" data-name="Rectangle 1148" width="3" height="11" transform="translate(309 10)" fill="#919191"/>
      <rect id="Rectangle_1149" data-name="Rectangle 1149" width="3" height="11" transform="translate(377 10)" fill="#919191"/>
      <rect id="Rectangle_1150" data-name="Rectangle 1150" width="3" height="11" transform="translate(411 10)" fill="#919191"/>
      <rect id="Rectangle_1151" data-name="Rectangle 1151" width="3" height="11" transform="translate(479 10)" fill="#919191"/>
      <rect id="Rectangle_1152" data-name="Rectangle 1152" width="3" height="11" transform="translate(513 10)" fill="#919191"/>
      <rect id="Rectangle_1153" data-name="Rectangle 1153" width="3" height="11" transform="translate(547 10)" fill="#919191"/>
      <rect id="Rectangle_1154" data-name="Rectangle 1154" width="3" height="11" transform="translate(615 10)" fill="#919191"/>
      <rect id="Rectangle_1155" data-name="Rectangle 1155" width="3" height="11" transform="translate(649 10)" fill="#919191"/>
      <rect id="Rectangle_1156" data-name="Rectangle 1156" width="3" height="11" transform="translate(717 10)" fill="#919191"/>
      <rect id="Rectangle_1157" data-name="Rectangle 1157" width="3" height="11" transform="translate(751 10)" fill="#919191"/>
      <rect id="Rectangle_1158" data-name="Rectangle 1158" width="3" height="11" transform="translate(785 10)" fill="#919191"/>
      <rect id="Rectangle_1159" data-name="Rectangle 1159" width="3" height="11" transform="translate(853 10)" fill="#919191"/>
      <rect id="Rectangle_1160" data-name="Rectangle 1160" width="3" height="11" transform="translate(887 10)" fill="#919191"/>
      <rect id="Rectangle_1164" data-name="Rectangle 1164" width="3" height="11" transform="translate(955 10)" fill="#919191"/>
      <rect id="Rectangle_1165" data-name="Rectangle 1165" width="3" height="11" transform="translate(989 10)" fill="#919191"/>
      <rect id="Rectangle_1166" data-name="Rectangle 1166" width="3" height="11" transform="translate(1023 10)" fill="#919191"/>
      <rect id="Rectangle_1167" data-name="Rectangle 1167" width="3" height="11" transform="translate(1091 10)" fill="#919191"/>
      <rect id="Rectangle_1168" data-name="Rectangle 1168" width="3" height="11" transform="translate(1125 10)" fill="#919191"/>
    </g>
  </g>
</svg>
