<svg xmlns="http://www.w3.org/2000/svg" width="18.836" height="18" viewBox="0 0 18.836 18">
  <g id="Group_5576" data-name="Group 5576" transform="translate(-104.114 -112)">
    <path id="Path_39503" data-name="Path 39503" d="M110.922,112.028h3.925c.075,0,.136.04.136.09h0v17.005c0,.472-.585.854-1.307.854H112.1c-.722,0-1.307-.382-1.307-.854h0v-17.01C110.8,112.068,110.854,112.032,110.922,112.028Z" transform="translate(-1.82 -0.008)" fill="#fff" opacity="0.34" style="isolation: isolate"/>
    <path id="Path_39500" data-name="Path 39500" d="M124.373,112.059H128.3c.075,0,.136.04.136.089h0v17.014c0,.472-.585.854-1.307.854h-1.57c-.723,0-1.308-.382-1.308-.854V112.143C124.253,112.1,124.306,112.063,124.373,112.059Z" transform="translate(-5.484 -0.016)" fill="#fff" opacity="0.34" style="isolation: isolate"/>
    <path id="Path_39501" data-name="Path 39501" d="M117.542,112.059h3.925c.075,0,.136.04.136.089h0v17.014c0,.472-.585.854-1.307.854h-1.57c-.722,0-1.307-.383-1.307-.854h0V112.143C117.424,112.1,117.475,112.063,117.542,112.059Z" transform="translate(-3.624 -0.016)" fill="#ff8300"/>
    <path id="Path_39503-2" data-name="Path 39503-2" d="M104.237,112.059h3.924c.075,0,.136.04.136.089h0v17.014c0,.472-.585.854-1.306.854h-1.57c-.721,0-1.306-.383-1.307-.854V112.143C104.118,112.1,104.17,112.063,104.237,112.059Z" transform="translate(0 -0.016)" fill="#fff" opacity="0.34" style="isolation: isolate"/>
    <path id="Rectangle_1463" data-name="Rectangle 1463" d="M122.04,112h2.354c.076,0,.137.04.137.09h0v10.683c0,.472-.586.854-1.307.854h0c-.722,0-1.307-.382-1.307-.854h0V112.084C121.92,112.041,121.972,112,122.04,112Z" transform="translate(-4.849)"/>
    <path id="Rectangle_1464" data-name="Rectangle 1464" d="M115.327,112h2.354c.076,0,.137.04.137.09h0v10.683c0,.472-.585.854-1.307.854h0c-.722,0-1.306-.383-1.307-.854V112.084C115.207,112.041,115.259,112,115.327,112Z" transform="translate(-3.02)"/>
    <path id="Rectangle_1466" data-name="Rectangle 1466" d="M108.614,112h2.354c.076,0,.137.04.137.09h0v10.683c0,.472-.586.854-1.307.854h0c-.722,0-1.307-.382-1.307-.854V112.084C108.494,112.041,108.546,112,108.614,112Z" transform="translate(-1.192)"/>
  </g>
</svg>
