<svg xmlns="http://www.w3.org/2000/svg" width="20.594" height="21.008" viewBox="0 0 20.594 21.008">
  <g id="Group_5577" data-name="Group 5577" transform="translate(-125.734 -72.548)">
    <g id="Group_5577-2" data-name="Group 5577" transform="translate(125.734 77.137)">
      <g id="Group_5572" data-name="Group 5572" opacity="0.336">
        <path id="Path_39330" data-name="Path 39330" d="M143.054,252.8l-.907-.254s-.622-.37-.789.324-.433.711-.6.711c-.327,0-.844-3.1-.844-3.1l-1.493.116a.887.887,0,0,1-.524.288.926.926,0,0,1-.534-.288h-1.568a.616.616,0,0,1-1.043,0H133.24a.909.909,0,0,1-.543.288,1.011,1.011,0,0,1-.567-.288h-1.493s.156,1.1.334,2.27a14.972,14.972,0,0,0,.387,2.429,4.154,4.154,0,0,0,1.084,2.154,5.223,5.223,0,0,1,.8,2.114h6.465a10.063,10.063,0,0,1,.724-2.575,2.824,2.824,0,0,1,1.269-1.309l1.274-1.913Z" transform="translate(-130.308 -243.142)" fill="#fff"/>
        <path id="Path_39325" data-name="Path 39325" d="M127.06,189.72l-.3-.005a.548.548,0,0,0-.609.456l-.416,1.78.35,2.1a.548.548,0,0,0,.593.477l.3.005a.548.548,0,0,0,.609-.456l-.292-2.1.358-1.782A.548.548,0,0,0,127.06,189.72Z" transform="translate(-125.734 -186.447)" fill="#fff"/>
        <path id="Path_39326" data-name="Path 39326" d="M165.9,155.222l-.295-.005a.648.648,0,0,0-.612.682l-.418,2.643.334,3.107a.656.656,0,0,0,.59.706l.3.005a.648.648,0,0,0,.612-.682l-.282-3.107.366-2.644A.656.656,0,0,0,165.9,155.222Z" transform="translate(-161.973 -154.265)" fill="#fff"/>
        <path id="Path_39327" data-name="Path 39327" d="M204.621,141.018l-.295,0a.708.708,0,0,0-.613.773l-.424,3,.327,3.523a.716.716,0,0,0,.589.8l.3.005a.708.708,0,0,0,.613-.773l-.275-3.519.372-3A.716.716,0,0,0,204.621,141.018Z" transform="translate(-198.091 -141.013)" fill="#fff"/>
        <path id="Path_39329" data-name="Path 39329" d="M288.663,237.034l.373.005c.416.006.743.2.738.44l.456,1.645-.522,1.912c0,.238-.346.425-.761.419l-.373-.005c-.416-.006-.743-.2-.738-.44l.441-1.913-.377-1.648C287.9,237.213,288.249,237.028,288.663,237.034Z" transform="translate(-276.972 -230.598)" fill="#fff"/>
      </g>
      <path id="Path_39499" data-name="Path 39499" d="M243.069,155.221l-.295-.005a.648.648,0,0,0-.612.682l-.418,2.643.334,3.106a.656.656,0,0,0,.591.706l.3.005a.649.649,0,0,0,.612-.682l-.282-3.107.366-2.644A.656.656,0,0,0,243.069,155.221Z" transform="translate(-233.969 -154.264)" fill="#ff8300"/>
    </g>
    <g id="Group_5575" data-name="Group 5575" transform="translate(126.763 72.548)">
      <g id="technology" transform="translate(0 0)" opacity="0.336">
        <g id="Group_947" data-name="Group 947">
          <g id="Group_946" data-name="Group 946">
            <path id="Path_39508" data-name="Path 39508" d="M159.493,72.548H142.245a1.149,1.149,0,0,0-1.161,1.137c0,.011,0,.022,0,.032v3.888a6.894,6.894,0,0,1,1.394-.366v-3.3h16.777v9.83H154.3a3,3,0,0,1,.268,1.4h4.924a1.163,1.163,0,0,0,1.161-1.161V73.718A1.163,1.163,0,0,0,159.493,72.548Z" transform="translate(-141.084 -72.548)" fill="#fff"/>
          </g>
        </g>
        <g id="Group_949" data-name="Group 949" transform="translate(9.271 8.389)">
          <g id="Group_948" data-name="Group 948" transform="translate(0 0)">
            <path id="Rectangle_896" data-name="Rectangle 896" d="M265.044,197.709h4.821V199.1l-4.865.033Z" transform="translate(-265 -197.709)" fill="#fff"/>
          </g>
        </g>
        <g id="Group_951" data-name="Group 951" transform="translate(2.812 2.788)">
          <g id="Group_950" data-name="Group 950">
            <rect id="Rectangle_897" data-name="Rectangle 897" width="2.719" height="1.394" fill="#fff"/>
          </g>
        </g>
        <g id="Group_953" data-name="Group 953" transform="translate(6.553 2.788)">
          <g id="Group_952" data-name="Group 952">
            <rect id="Rectangle_898" data-name="Rectangle 898" width="2.719" height="1.394" fill="#fff"/>
          </g>
        </g>
        <g id="Group_955" data-name="Group 955" transform="translate(10.294 2.788)">
          <g id="Group_954" data-name="Group 954">
            <rect id="Rectangle_899" data-name="Rectangle 899" width="2.719" height="1.394" fill="#fff"/>
          </g>
        </g>
        <g id="Group_957" data-name="Group 957" transform="translate(14.035 2.788)">
          <g id="Group_956" data-name="Group 956">
            <rect id="Rectangle_900" data-name="Rectangle 900" width="2.719" height="1.394" fill="#fff"/>
          </g>
        </g>
        <g id="Group_965" data-name="Group 965" transform="translate(14.035 5.716)">
          <g id="Group_964" data-name="Group 964">
            <rect id="Rectangle_904" data-name="Rectangle 904" width="2.719" height="1.394" fill="#fff"/>
          </g>
        </g>
      </g>
      <g id="Group_5573" data-name="Group 5573" transform="translate(10.294 5.716)">
        <g id="Group_962" data-name="Group 962">
          <rect id="Rectangle_903" data-name="Rectangle 903" width="2.719" height="1.394" fill="#ff8300"/>
        </g>
      </g>
    </g>
  </g>
</svg>
