<?xml version="1.0" encoding="utf-8"?>
<!-- Generator: Adobe Illustrator 27.5.0, SVG Export Plug-In . SVG Version: 6.00 Build 0)  -->
<svg version="1.1" id="Capa_1" xmlns="http://www.w3.org/2000/svg" xmlns:xlink="http://www.w3.org/1999/xlink" x="0px" y="0px"
	 viewBox="0 0 512 512" style="enable-background:new 0 0 512 512;" xml:space="preserve">
<style type="text/css">
	.st0{fill:#FF8300;}
</style>
<g>
	<path class="st0" d="M350,374.2l29.1-138c0.8-0.4,1.7-0.8,2.5-1.3l66.9-45.1c7-4.7,8.8-14.2,4.1-21.1c-4.7-7-14.2-8.8-21.1-4.1
		l-66.9,45.1c-0.2,0.2-0.5,0.3-0.7,0.5l-92.3-19.4v68.1c1.7,5.6,2.6,11.7,2.2,18c-1.4,25.7-21.9,46.7-47.5,48.5
		c-30.1,2.2-55.3-21.7-55.3-51.3c0-5.3,0.8-10.4,2.3-15.2v-88.9l-59.1-12.4c-6.4-1.4-12.7,2.8-14.1,9.2l-32.9,156
		c-1.4,6.4,2.8,12.7,9.2,14.1l246.9,52l43.3,66.4c2.9,4.5,7.8,6.9,12.8,6.9c3.1,0,6.2-0.9,9-2.9c6.6-4.8,8-14.1,3.5-21L350,374.2z"
		/>
	<circle class="st0" cx="222.4" cy="274" r="21"/>
	<path class="st0" d="M33.5,177.7c-6-1.3-11.8,2.6-13.1,8.5L0.2,282c-1.3,6,2.6,11.8,8.5,13.1l31.7,6.7l24.7-117.4L33.5,177.7z"/>
	<path class="st0" d="M496.4,224.9l-93,41.7l-16.7,79.3l68.8,73.9c6.1,6.5,17,3.5,18.9-5.3l37.3-177.2
		C513.6,228.4,504.7,221.2,496.4,224.9L496.4,224.9z"/>
	<path class="st0" d="M322.1,49.9H122.7c-8.4,0-15.2,6.8-15.2,15.2s6.8,15.2,15.2,15.2h81v145.8c5.8-2.3,12.1-3.5,18.7-3.5
		s12.9,1.3,18.7,3.5V80.3h81c8.4,0,15.2-6.8,15.2-15.2S330.5,49.9,322.1,49.9L322.1,49.9z"/>
</g>
</svg>
