<svg id="login" xmlns="http://www.w3.org/2000/svg" width="16.978" height="16.271" viewBox="0 0 16.978 16.271">
  <path id="Path_37111" data-name="Path 37111" d="M325.129,258.83h-.177v-1.061a1.769,1.769,0,0,0-3.537,0v1.061h-.177A1.239,1.239,0,0,0,320,260.068v2.476a1.239,1.239,0,0,0,1.238,1.238h3.891a1.239,1.239,0,0,0,1.238-1.238v-2.476A1.239,1.239,0,0,0,325.129,258.83Zm-2.653-1.061a.707.707,0,1,1,1.415,0v1.061h-1.415Zm0,0" transform="translate(-309.389 -247.511)" fill="#ff8300"/>
  <path id="Path_37112" data-name="Path 37112" d="M9.55,260.068a2.3,2.3,0,0,1,1.415-2.122v-.177a2.8,2.8,0,0,1,.277-1.2A3.344,3.344,0,0,0,9.373,256H3.36A3.364,3.364,0,0,0,0,259.36v2.476a.531.531,0,0,0,.531.531H9.55Zm0,0" transform="translate(0 -247.511)" fill="#ff8300"/>
  <path id="Path_37113" data-name="Path 37113" d="M92.406,3.537A3.537,3.537,0,1,1,88.869,0,3.537,3.537,0,0,1,92.406,3.537Zm0,0" transform="translate(-82.502)" fill="#ff8300"/>
</svg>
