<svg xmlns="http://www.w3.org/2000/svg" width="490.3" height="372.399" viewBox="0 0 490.3 372.399">
  <g id="_8" data-name="8" transform="translate(0 -58.95)">
    <g id="Group_4988" data-name="Group 4988">
      <path id="Path_39015" data-name="Path 39015" d="M0,121.05v248.2a62.224,62.224,0,0,0,62.1,62.1H262.7a62.224,62.224,0,0,0,62.1-62.1v-40.2c0-6.8-16.3-12.72-30.873-13.107S262.7,322.25,262.7,329.05l.1,25.522c.684,7.692-1.965,14.2-10.9,14.678H74.526c-7.982-.325-12.715-6.408-12.426-14.678V133.548c-.131-8.855,1.342-12.977,12.426-12.5H251.9c9-.13,10.8,5.363,10.9,12.5v27.7c0,6.8,14.89,11,31.127,11.369S324.9,168.05,324.9,161.25v-40.2a62.224,62.224,0,0,0-62.1-62.1H62.1A62.16,62.16,0,0,0,0,121.05Z" fill="#ff8300"/>
      <path id="Path_39016" data-name="Path 39016" d="M378.388,327.678c8.061,7.018,21.212,9.972,24.412,9.972h0l83.9-83.9a12.192,12.192,0,0,0,0-17.3l-83.9-83.9c-4.8-4.8-22.927,3.4-27.727,8.2s-14.233,18.423-9.433,23.223l30.821,29.9H218.6c-6.8,0-12.3,24.476-12.3,31.276s5.5,29.938,12.3,29.938H396.462l-30.821,29.726C360.841,309.513,373.588,322.978,378.388,327.678Z" fill="#ff8300"/>
    </g>
  </g>
</svg>
