<svg xmlns="http://www.w3.org/2000/svg" width="16.788" height="16.788" viewBox="0 0 16.788 16.788">
  <g id="login_1_" data-name="login(1)" transform="translate(0)">
    <path id="Path_37109" data-name="Path 37109" d="M180.336.011c-.017,0-.032-.011-.05-.011h-7.52a2.1,2.1,0,0,0-2.1,2.1v.7a.7.7,0,1,0,1.4,0V2.1a.7.7,0,0,1,.7-.7h3.259l-.213.071a1.406,1.406,0,0,0-.947,1.328V13.29h-2.1a.7.7,0,0,1-.7-.7v-1.4a.7.7,0,1,0-1.4,0v1.4a2.1,2.1,0,0,0,2.1,2.1h2.1v.7a1.4,1.4,0,0,0,1.4,1.4,1.468,1.468,0,0,0,.446-.069l4.2-1.4a1.406,1.406,0,0,0,.948-1.328V1.4A1.4,1.4,0,0,0,180.336.011Zm0,0" transform="translate(-165.072)" fill="#ff8300"/>
    <path id="Path_37110" data-name="Path 37110" d="M7.489,109.666l-2.8-2.8a.7.7,0,0,0-1.194.495v2.1H.7a.7.7,0,0,0,0,1.4H3.5v2.1a.7.7,0,0,0,1.194.495l2.8-2.8A.7.7,0,0,0,7.489,109.666Zm0,0" transform="translate(0 -103.165)" fill="#ff8300"/>
  </g>
</svg>
