<svg xmlns="http://www.w3.org/2000/svg" width="21.12" height="12.911" viewBox="0 0 21.12 12.911">
  <g id="C_" data-name="C " transform="translate(-179.98 -217.37)" opacity="0.341" style="isolation: isolate">
    <g id="Group_5578" data-name="Group 5578" transform="translate(179.98 217.37)" style="isolation: isolate">
      <path id="Path_39509" data-name="Path 39509" d="M189.142,226.17a4.772,4.772,0,0,1-.41,1.707,3.974,3.974,0,0,1-.935,1.293,4.077,4.077,0,0,1-1.4.823,5.308,5.308,0,0,1-1.793.289,4.549,4.549,0,0,1-1.974-.409,4.036,4.036,0,0,1-1.448-1.146,5.218,5.218,0,0,1-.9-1.771,7.894,7.894,0,0,1-.31-2.275v-1.689a7.532,7.532,0,0,1,.328-2.284,5.324,5.324,0,0,1,.931-1.776,4.189,4.189,0,0,1,1.461-1.151,4.417,4.417,0,0,1,1.926-.409,5.374,5.374,0,0,1,1.84.293,3.76,3.76,0,0,1,2.271,2.163,5.908,5.908,0,0,1,.414,1.767h-2.413a4.115,4.115,0,0,0-.168-.983,1.869,1.869,0,0,0-.388-.7,1.6,1.6,0,0,0-.638-.422,2.645,2.645,0,0,0-.918-.142,1.8,1.8,0,0,0-1.659.948,3.6,3.6,0,0,0-.4,1.142,8.249,8.249,0,0,0-.129,1.538v1.707a5.578,5.578,0,0,0,.521,2.741,1.774,1.774,0,0,0,1.65.888,2.139,2.139,0,0,0,1.5-.5,2.3,2.3,0,0,0,.612-1.633Z" transform="translate(-179.98 -217.37)" fill="#fff"/>
      <path id="Path_39510" data-name="Path 39510" d="M264.057,227.625h-1.732l-.629,3.534h-1.543l.629-3.534h-1.965v-1.457h2.224l.448-2.5h-2.026V222.2h2.284l.646-3.585h1.534l-.638,3.585h1.732l.638-3.585h1.551l-.646,3.585h1.87v1.474h-2.129l-.448,2.5h1.922v1.457H265.6l-.629,3.534h-1.543Zm-1.474-1.457h1.732l.44-2.5h-1.732Z" transform="translate(-247.316 -218.429)" fill="#fff"/>
    </g>
  </g>
</svg>
