<?xml version="1.0" encoding="utf-8"?>
<!-- Generator: Adobe Illustrator 24.3.0, SVG Export Plug-In . SVG Version: 6.00 Build 0)  -->
<svg version="1.1" id="Layer_1" xmlns="http://www.w3.org/2000/svg" xmlns:xlink="http://www.w3.org/1999/xlink" x="0px" y="0px"
	 viewBox="0 0 512 512" style="enable-background:new 0 0 512 512;" xml:space="preserve">
<style type="text/css">
	.st0{fill:#FF8300;}
</style>
<g id="Page-1">
	<g id="_x30_17---Self-Star-Rating" transform="translate(-1)">
		<path id="Shape" class="st0" d="M301.7,282.7c-2.9,1-5,3.5-5.6,6.5c-0.6,3,0.5,6.1,2.8,8.1c2.3,2,5.5,2.6,8.4,1.6
			c70.9-24.6,113.7-96.7,101.2-170.7C396.1,54.2,332.1,0,257,0S118,54.2,105.5,128.1s30.3,146.1,101.2,170.7
			c4.5,1.5,9.3-0.8,10.9-5.3c1.5-4.5-0.8-9.3-5.3-10.9c-14.8-5.1-28.5-12.8-40.7-22.6v-9.3c0-26.6,16.4-50.5,41.2-60
			c26.4,18.7,61.8,18.7,88.3,0c24.9,9.5,41.2,33.4,41.2,60v9.3C330.2,269.9,316.5,277.6,301.7,282.7L301.7,282.7z M197.3,128
			c0-33,26.7-59.7,59.7-59.7S316.7,95,316.7,128S290,187.7,257,187.7C224,187.7,197.3,161,197.3,128z M315,178.1
			c26.8-31,24.6-77.6-5.1-105.9s-76.3-28.3-106,0s-31.9,74.9-5.1,105.9c-25.1,12.8-41.8,37.8-44,65.9
			c-48.6-54.8-45.3-138.3,7.5-189.1s136.4-50.8,189.2,0s56.2,134.2,7.5,189.1C356.9,215.9,340.2,190.9,315,178.1z"/>
		<path id="Shape_1_" class="st0" d="M183.6,508.7c5.2,3.9,12.2,4.4,17.9,1.4l55.5-28.9l55.5,28.9c5.8,3,12.7,2.5,18-1.4
			c5.2-3.8,7.8-10.3,6.7-16.7l-10.5-60.9l44.6-43c4.7-4.5,6.4-11.3,4.4-17.5c-2-6.2-7.3-10.7-13.8-11.7l-62-8.9l-27.6-55.6
			c-2.9-5.8-8.8-9.5-15.3-9.5c-6.5,0-12.4,3.6-15.3,9.4L214,350l-61.8,8.9c-6.4,0.9-11.8,5.5-13.8,11.7s-0.3,13,4.4,17.5l44.6,43
			L176.9,492C175.8,498.4,178.4,504.9,183.6,508.7L183.6,508.7z M154.6,375.8l66.2-9.5c2.8-0.4,5.2-2.1,6.4-4.6l29.8-59.6l29.7,59.6
			c1.2,2.5,3.7,4.2,6.4,4.6l66.4,9.5L311.6,422c-2,2-3,4.8-2.5,7.6l11.3,65.3L261,464c-2.5-1.3-5.4-1.3-7.9,0l-59.5,30.9l11.3-65.3
			c0.5-2.8-0.4-5.6-2.5-7.6L154.6,375.8z"/>
		<path id="Shape_2_" class="st0" d="M41.1,377.4l-8.3,48.2c-0.8,4.5,0.4,9.1,3.3,12.6c2.9,3.5,7.3,5.5,11.8,5.5
			c2.5,0,4.9-0.6,7.2-1.8l44-22.9l44,23c2.7,1.4,6,1.3,8.5-0.4c2.6-1.6,4.1-4.5,3.9-7.6c-0.1-3-1.9-5.8-4.6-7.2l-48-25
			c-2.5-1.3-5.4-1.3-7.9,0l-45,23.5l8.5-49.5c0.5-2.8-0.4-5.6-2.5-7.6l-36.2-35l50.2-7.2c2.8-0.4,5.2-2.1,6.4-4.6l22.6-45.2
			l22.5,45.2c1.3,2.5,3.7,4.2,6.4,4.6l53.6,7.7c4.7,0.7,9-2.6,9.7-7.2c0.7-4.7-2.6-9-7.2-9.7l-49.2-7l-22-44.1
			c-2.6-5.3-8-8.6-13.8-8.5H99c-5.8,0-11.1,3.3-13.7,8.5l-22.1,44.2l-49,7c-5.9,0.8-10.8,4.9-12.6,10.5c-1.8,5.6-0.2,11.8,4.1,15.9
			L41.1,377.4z"/>
		<path id="Shape_3_" class="st0" d="M512.2,327.3c-1.8-5.6-6.6-9.7-12.5-10.5l-49.1-7l-22.1-44.2c-2.5-5.2-7.8-8.5-13.7-8.5H415
			c-5.9,0-11.2,3.3-13.8,8.5l-22,44.1l-49.2,7c-3,0.4-5.6,2.4-6.7,5.3s-0.7,6,1.2,8.4c1.9,2.4,4.9,3.6,7.9,3.2L386,326
			c2.8-0.4,5.2-2.1,6.4-4.6l22.5-45.1l22.6,45.2c1.3,2.5,3.6,4.2,6.4,4.6l50.1,7.2l-36.2,35c-2,2-3,4.8-2.5,7.6l8.6,49.5l-45-23.5
			c-2.5-1.3-5.4-1.3-7.9,0l-48,25c-2.7,1.4-4.5,4.2-4.6,7.2c-0.1,3,1.4,5.9,3.9,7.6s5.8,1.8,8.5,0.4l44-22.9l44,23
			c5.2,2.7,11.5,2.2,16.2-1.3s7.1-9.3,6.1-15.1l-8.3-48.3l35.4-34.1C512.6,339.1,514.1,332.9,512.2,327.3L512.2,327.3z"/>
		<path id="Shape_4_" class="st0" d="M210.1,402.3c0.4,0,0.8,0,1.2-0.1l32.1-4.6c2.8-0.4,5.2-2.1,6.4-4.6l14.8-29.7
			c2.1-4.2,0.4-9.4-3.8-11.5c-4.2-2.1-9.4-0.4-11.5,3.8l-12.8,25.7l-27.7,4c-4.4,0.6-7.6,4.6-7.3,9.1
			C201.9,398.8,205.6,402.2,210.1,402.3L210.1,402.3z"/>
	</g>
</g>
</svg>
