<?xml version="1.0" standalone="no"?>
<!DOCTYPE svg PUBLIC "-//W3C//DTD SVG 20010904//EN"
 "http://www.w3.org/TR/2001/REC-SVG-20010904/DTD/svg10.dtd">
<svg version="1.0" xmlns="http://www.w3.org/2000/svg"
 width="567.000000pt" height="567.000000pt" viewBox="0 0 567.000000 567.000000"
 preserveAspectRatio="xMidYMid meet">
<metadata>
Created by potrace 1.11, written by Peter Selinger 2001-2013
</metadata>
<g transform="translate(0.000000,567.000000) scale(0.100000,-0.100000)"
fill="#000000" stroke="none">
<path d="M1158 5460 c-20 -11 -47 -34 -60 -52 l-23 -33 -3 -2515 c-2 -1791 0
-2526 8 -2553 13 -43 61 -102 101 -123 23 -12 109 -14 514 -14 505 0 505 0
553 43 l22 20 23 -20 c47 -43 47 -43 553 -43 l487 0 43 25 c32 19 50 39 71 82
l28 58 3 1013 3 1012 -60 0 -61 0 -2 -962 c-3 -954 -3 -963 -24 -1003 -11 -22
-36 -50 -54 -63 -33 -22 -35 -22 -434 -22 -384 0 -402 1 -434 20 -19 12 -41
38 -52 63 -18 40 -20 70 -20 525 l0 482 110 0 c119 0 170 13 189 48 8 15 11
567 11 1878 l0 1857 138 -6 c164 -6 267 -30 398 -92 126 -59 204 -114 305
-214 241 -242 351 -537 352 -946 0 -139 -4 -189 -22 -275 -50 -236 -163 -442
-327 -600 -105 -101 -154 -136 -264 -189 -94 -46 -183 -67 -332 -79 -81 -7
-113 -13 -128 -27 -24 -22 -27 -77 -5 -95 48 -40 382 -34 598 10 324 67 602
214 822 435 134 134 219 252 295 410 116 240 170 478 170 750 0 138 -10 207
-46 332 -68 237 -217 454 -405 594 -134 99 -347 190 -549 233 -232 50 -194 49
-1360 52 -1073 4 -1096 3 -1132 -16z m742 -2041 c0 -1318 3 -1957 10 -1970 21
-37 63 -49 180 -49 l110 0 0 -485 c0 -469 -1 -487 -20 -526 -12 -22 -35 -49
-53 -59 -30 -19 -53 -20 -432 -20 -379 0 -402 1 -432 20 -18 10 -41 37 -53 59
-20 40 -20 44 -20 2463 0 2348 1 2424 19 2454 37 61 54 64 389 64 l302 0 0
-1951z"/>
</g>
</svg>
