<svg xmlns="http://www.w3.org/2000/svg" width="31.241" height="17.573" viewBox="0 0 31.241 17.573">
  <g id="soundcloud_1_" data-name="soundcloud(1)" transform="translate(0)">
    <path id="Path_37133" data-name="Path 37133" d="M266.739,119.81a4.86,4.86,0,0,0-1.017.107A8.8,8.8,0,0,0,256.976,112a.977.977,0,0,0-.976.976V128.6a.977.977,0,0,0,.976.976h9.763a4.881,4.881,0,0,0,0-9.763Z" transform="translate(-240.38 -112)" fill="#ff9800"/>
    <path id="Path_37134" data-name="Path 37134" d="M192.976,144a.977.977,0,0,0-.976.976v13.668a.976.976,0,1,0,1.953,0V144.976A.977.977,0,0,0,192.976,144Z" transform="translate(-180.285 -142.047)" fill="#ff9800"/>
    <path id="Path_37135" data-name="Path 37135" d="M128.976,208a.977.977,0,0,0-.976.976v9.763a.976.976,0,1,0,1.953,0v-9.763A.977.977,0,0,0,128.976,208Z" transform="translate(-120.19 -202.142)" fill="#ff9800"/>
    <path id="Path_37136" data-name="Path 37136" d="M64.976,208a.977.977,0,0,0-.976.976v9.763a.976.976,0,0,0,1.953,0v-9.763A.977.977,0,0,0,64.976,208Z" transform="translate(-60.095 -202.142)" fill="#ff9800"/>
    <path id="Path_37137" data-name="Path 37137" d="M.976,256a.977.977,0,0,0-.976.976v5.858a.976.976,0,1,0,1.953,0v-5.858A.977.977,0,0,0,.976,256Z" transform="translate(0 -247.214)" fill="#ff9800"/>
  </g>
</svg>
