<?xml version="1.0" encoding="utf-8"?>
<!-- Generator: Adobe Illustrator 27.3.1, SVG Export Plug-In . SVG Version: 6.00 Build 0)  -->
<svg version="1.1" id="Layer_1" xmlns="http://www.w3.org/2000/svg" xmlns:xlink="http://www.w3.org/1999/xlink" x="0px" y="0px"
	 viewBox="0 0 17.2 14" style="enable-background:new 0 0 17.2 14;" xml:space="preserve">
<style type="text/css">
	.st0{fill:#FFFFFF;}
</style>
<g id="interface" transform="translate(0 -42.664)">
	<g id="Group_989" transform="translate(0 42.664)">
		<g id="Group_988">
			<path class="st0" d="M7.8,0.4c0-0.2-0.1-0.3-0.2-0.4C7.4,0,7.3,0,7.1,0.1L5.2,1.9l2.6,2.5V0.4z"/>
			<path class="st0" d="M1.5,3.9H0.4C0.2,3.9,0,4.1,0,4.3v5.5c0,0.2,0.2,0.4,0.4,0.4h2.7l4,3.8c0.1,0.1,0.2,0.1,0.3,0.1
				c0.1,0,0.1,0,0.2,0c0.1-0.1,0.2-0.2,0.2-0.4v-3.3L1.5,3.9z"/>
			<path class="st0" d="M10.2,4.9c-0.1-0.2-0.4-0.2-0.6-0.1c0,0,0,0,0,0L9,5.4C9,5.4,9,5.5,8.9,5.6l1.9,1.9
				C11,6.6,10.8,5.6,10.2,4.9z"/>
			<path class="st0" d="M12.4,2.6L12.4,2.6c-0.1-0.2-0.4-0.2-0.6,0c0,0,0,0,0,0l-0.6,0.6c-0.1,0.1-0.1,0.4,0,0.5
				c1.2,1.4,1.5,3.4,0.9,5l1.2,1.2C14.5,7.6,14.2,4.7,12.4,2.6z"/>
			<path class="st0" d="M14.6,0.4c-0.1-0.2-0.4-0.2-0.6,0c0,0,0,0,0,0L13.5,1c-0.1,0.1-0.1,0.4,0,0.5c2.4,2.7,2.8,6.6,1.1,9.6
				l1.1,1.1C18,8.6,17.6,3.7,14.6,0.4z"/>
		</g>
	</g>
</g>
<path class="st0" d="M1.6,0.3C1.4,0.1,1,0.1,0.8,0.3s-0.2,0.6,0,0.8l12.6,12.6c0.1,0.1,0.3,0.2,0.4,0.2s0.3-0.1,0.4-0.2
	c0.2-0.2,0.2-0.6,0-0.8L1.6,0.3z"/>
</svg>
