<?xml version="1.0" encoding="utf-8"?>
<!-- Generator: Adobe Illustrator 24.3.0, SVG Export Plug-In . SVG Version: 6.00 Build 0)  -->
<svg version="1.1" id="Layer_1" xmlns="http://www.w3.org/2000/svg" xmlns:xlink="http://www.w3.org/1999/xlink" x="0px" y="0px"
	 viewBox="0 0 190 32" style="enable-background:new 0 0 190 32;" xml:space="preserve">
<style type="text/css">
	.st0{fill:#FF8300;}
	.st1{fill:#E6E6E6;}
</style>
<g id="Group_4670" transform="translate(-0.043 -43.89)">
	<g id="_003-piano-1" transform="translate(0.043 59.895)">
		<path id="Path_394" class="st0" d="M15.1,0.1h-2.8v7.6c0,0.4-0.2,1-0.7,1H11v7.2h4c0.5-0.1,0.9-0.5,0.8-1V1
			C15.9,0.5,15.6,0.1,15.1,0.1L15.1,0.1z"/>
		<g id="Group_778" transform="translate(0 0)">
			<path id="Path_397" class="st0" d="M4.6,8.7c-0.5-0.1-0.8-0.5-0.9-1V0.1H1.2c-0.5,0-1,0.4-1,0.9v13.9c0,0.5,0.4,1,1,1h3.9V8.7
				H4.6z"/>
			<path id="Path_398" class="st0" d="M10.1,8.7c-0.5-0.1-0.9-0.5-0.9-1V0.1H7v7.6c0,0.4-0.2,1-0.7,1H5.6v7.2h4.8V8.7H10.1z"/>
		</g>
	</g>
	<g id="_003-piano-1-2" transform="translate(0.043 43.895)">
		<path id="Path_394-2" class="st1" d="M15.1,0.1h-2.8v7.6c0,0.4-0.2,1-0.7,1H11v7.2h4c0.5-0.1,0.9-0.5,0.8-1v-14
			C15.9,0.5,15.6,0.1,15.1,0.1L15.1,0.1z"/>
		<g id="Group_778-2" transform="translate(0 0)">
			<path id="Path_397-2" class="st1" d="M4.6,8.6c-0.5-0.1-0.8-0.5-0.9-1V0.1H1.2c-0.5,0-1,0.4-1,0.9v13.9c0,0.5,0.4,1,1,1h3.9V8.6
				H4.6z"/>
			<path id="Path_398-2" class="st1" d="M10.1,8.6c-0.5-0.1-0.9-0.5-0.9-1V0.1H7v7.6c0,0.4-0.2,1-0.7,1H5.6v7.2h4.8V8.6H10.1z"/>
		</g>
	</g>
	<g id="music-note" transform="translate(18.043 43.89)">
		<g id="Group_780">
			<g id="Group_779">
				<path id="Path_399" class="st1" d="M6.4,3.4C5.5,2.8,4.7,2,4.1,1.2L3.6,0.4C3.4,0.2,3.1,0.1,2.9,0.3C2.8,0.4,2.7,0.5,2.7,0.7
					v7.2C2.4,7.7,2.2,7.6,1.9,7.6C0.8,7.6,0,8.4,0,9.4s0.8,1.9,1.9,1.9c1,0,1.9-0.8,1.9-1.9l0,0V2.1C4.4,2.9,5.2,3.6,6,4.2
					c0.6,0.5,0.8,1.3,0.3,2C5.9,6.4,5.5,6.6,5.1,6.6c-0.3,0-0.5,0.2-0.5,0.5s0.2,0.5,0.5,0.5c1.3,0,2.2-1,2.2-2.2
					C7.3,4.6,6.9,3.9,6.4,3.4z"/>
			</g>
		</g>
		<g id="Group_782" transform="translate(5.622 3.812)">
			<g id="Group_781">
				<path id="Path_400" class="st1" d="M9.5,0.1L3,2C2.7,2.1,2.6,2.2,2.6,2.4v6.3C2.3,8.4,2,8.3,1.7,8.3c-1,0-1.9,0.8-1.9,1.9
					S0.7,12,1.7,12s1.9-0.8,1.9-1.9l0,0V4.6L9.1,3v3.8C8.8,6.7,8.5,6.6,8.2,6.6c-1,0-1.9,0.8-1.9,1.9s0.8,1.9,1.9,1.9s1.8-0.9,1.8-2
					l0,0V0.6C10,0.3,9.8,0.1,9.5,0.1L9.5,0.1z"/>
			</g>
		</g>
	</g>
	<g id="music-note-2" transform="translate(18.043 59.89)">
		<g id="Group_780-2">
			<g id="Group_779-2">
				<path id="Path_399-2" class="st0" d="M6.4,3.4C5.5,2.9,4.7,2.1,4.1,1.2L3.6,0.4C3.4,0.2,3.1,0.1,2.9,0.3
					C2.8,0.4,2.7,0.5,2.7,0.7v7.2C2.4,7.7,2.2,7.6,1.9,7.6C0.8,7.6,0,8.4,0,9.4s0.8,1.9,1.9,1.9c1,0,1.9-0.8,1.9-1.9l0,0V2.2
					c0.5,0.8,1.3,1.4,2.1,2c0.6,0.5,0.8,1.3,0.3,2C5.9,6.5,5.5,6.7,5.1,6.7c-0.3,0-0.5,0.2-0.5,0.5s0.2,0.5,0.5,0.5
					c1.3,0,2.2-1,2.2-2.2C7.3,4.6,6.9,3.9,6.4,3.4z"/>
			</g>
		</g>
		<g id="Group_782-2" transform="translate(5.622 3.812)">
			<g id="Group_781-2">
				<path id="Path_400-2" class="st0" d="M9.5,0.1L3,2C2.7,2.1,2.6,2.2,2.6,2.4v6.3C2.3,8.4,2,8.3,1.7,8.3c-1,0-1.9,0.8-1.9,1.9
					s0.8,1.9,1.9,1.9s1.9-0.8,1.9-1.9l0,0V4.6L9.1,3v3.8C8.8,6.7,8.5,6.6,8.2,6.6c-1,0-1.9,0.8-1.9,1.9s0.8,1.9,1.9,1.9
					s1.8-0.9,1.8-2l0,0V0.6C10,0.3,9.8,0.1,9.5,0.1L9.5,0.1z"/>
			</g>
		</g>
	</g>
	<g id="academic" transform="translate(36.043 62.89)">
		<path id="Path_403" class="st0" d="M11.7,5.4v2.5c0,0.2-0.1,0.4-0.3,0.5L9.1,9.5C8.8,9.7,8.6,9.8,8.4,10c-0.2,0.2-0.5,0.2-0.7,0
			C7.4,9.8,7.2,9.7,6.9,9.5L4.6,8.4C4.4,8.3,4.3,8.1,4.3,7.9V5.4l3.4,1c0.2,0.1,0.5,0.1,0.7,0L11.7,5.4z"/>
		<g id="Group_784" transform="translate(12.801 4.588)">
			<path id="Path_404" class="st0" d="M1.8,0v5.3c0,0.5-0.4,0.9-0.9,0.9C0.4,6.1,0,5.7,0,5.3V0.5L1.8,0z"/>
		</g>
		<g id="Group_785">
			<path id="Path_405" class="st0" d="M7.9,5.3L0.4,3.2C0.1,3.1-0.1,2.8,0,2.5c0.1-0.2,0.2-0.3,0.4-0.4L7.9,0C8,0,8.1,0,8.2,0
				l7.5,2.1c0.3,0.1,0.4,0.4,0.4,0.7C16,3,15.9,3.1,15.7,3.2L8.1,5.3H7.9z"/>
		</g>
	</g>
	<g id="academic-2" transform="translate(36.043 46.89)">
		<path id="Path_403-2" class="st1" d="M11.7,5.4v2.5c0,0.2-0.1,0.4-0.3,0.5L9.1,9.5C8.8,9.7,8.6,9.8,8.4,10c-0.2,0.2-0.5,0.2-0.7,0
			C7.4,9.8,7.2,9.7,6.9,9.5L4.6,8.4C4.4,8.3,4.3,8.1,4.3,7.9V5.4l3.4,1c0.2,0.1,0.5,0.1,0.7,0L11.7,5.4z"/>
		<g id="Group_784-2" transform="translate(12.801 4.588)">
			<path id="Path_404-2" class="st1" d="M1.8,0v5.3c0,0.5-0.4,0.9-0.9,0.9C0.4,6.1,0,5.7,0,5.3V0.5L1.8,0z"/>
		</g>
		<g id="Group_785-2">
			<path id="Path_405-2" class="st1" d="M7.9,5.3L0.4,3.2C0.1,3.1-0.1,2.8,0,2.5c0.1-0.2,0.2-0.3,0.4-0.4L7.9,0C8,0,8.1,0,8.2,0
				l7.5,2.1c0.3,0.1,0.4,0.4,0.4,0.7C16,3,15.9,3.1,15.7,3.2L8.1,5.3H7.9z"/>
		</g>
	</g>
	<g id="play_copy" transform="translate(54.043 60.89)">
		<g id="Group_800">
			<path id="Path_415" class="st0" d="M11.3,5.7l-9-5.3C1-0.4,0,0.2,0,1.6v10.8c0,1.4,1,2,2.2,1.3l9-5.3c0.7-0.3,1.1-1.1,0.8-1.8
				C12,6.1,11.6,5.8,11.3,5.7z M1.7,12V2l8.4,5L1.7,12z"/>
		</g>
	</g>
	<g id="play_copy-2" transform="translate(54.043 44.89)">
		<g id="Group_800-2">
			<path id="Path_415-2" class="st1" d="M11.3,5.7l-9-5.3C1-0.4,0,0.2,0,1.6v10.8c0,1.4,1,2,2.2,1.3l9-5.3c0.7-0.3,1.1-1.1,0.8-1.8
				C12,6.1,11.6,5.8,11.3,5.7z M1.7,12V2l8.4,5L1.7,12z"/>
		</g>
	</g>
	<g id="target" transform="translate(68.043 43.89)">
		<g id="Group_793" transform="translate(0 3.2)">
			<g id="Group_792">
				<path id="Path_411" class="st1" d="M12.3,3.9L11,5.2c0.1,0.4,0.1,0.8,0.2,1.2c0,2.7-2.1,4.8-4.8,4.8S1.7,9.1,1.7,6.4
					s2.1-4.8,4.8-4.8l0,0c0.4,0,0.8,0.1,1.2,0.2L9,0.5C8.1,0.2,7.3,0,6.4,0C2.9,0,0.1,2.9,0.1,6.4s2.9,6.4,6.4,6.4s6.4-2.9,6.4-6.4
					C12.8,5.5,12.6,4.7,12.3,3.9z"/>
			</g>
		</g>
		<g id="Group_795" transform="translate(3.2)">
			<g id="Group_794">
				<path id="Path_412" class="st1" d="M9.6,3.2V0.1L7.2,2.4v2.1L4.8,6.9c-0.5-0.3-1-0.5-1.6-0.5C1.4,6.4,0,7.8,0,9.6
					s1.4,3.2,3.2,3.2s3.2-1.4,3.2-3.2l0,0C6.4,9,6.2,8.5,5.9,8l2.4-2.4h2.1l2.4-2.4L9.6,3.2z M3.2,11.2c-0.9,0-1.6-0.7-1.6-1.6
					S2.3,8,3.2,8c0.1,0,0.3,0,0.4,0.1l-1,1c-0.3,0.3-0.3,0.8,0,1.1s0.8,0.3,1.1,0l0,0l1-1c0.1,0.1,0.1,0.3,0.1,0.4
					C4.8,10.5,4.1,11.2,3.2,11.2L3.2,11.2z"/>
			</g>
		</g>
	</g>
	<g id="target-2" transform="translate(68.043 59.89)">
		<g id="Group_793-2" transform="translate(0 3.2)">
			<g id="Group_792-2">
				<path id="Path_411-2" class="st0" d="M12.2,3.9l-1.3,1.3C11,5.5,11,5.9,11.1,6.3c0,2.7-2.1,4.8-4.8,4.8S1.6,9,1.6,6.3
					s2.1-4.8,4.8-4.8l0,0c0.4,0,0.8,0.1,1.2,0.2l1.3-1.3C8,0.2,7.2,0,6.4,0C2.9,0,0,2.9,0,6.3s2.9,6.4,6.4,6.4s6.4-2.9,6.4-6.4
					C12.7,5.5,12.5,4.7,12.2,3.9z"/>
			</g>
		</g>
		<g id="Group_795-2" transform="translate(3.2)">
			<g id="Group_794-2">
				<path id="Path_412-2" class="st0" d="M9.5,3.2V0L7.1,2.4v2.1L4.7,6.9c-0.5-0.3-1-0.5-1.6-0.5C1.4,6.4,0,7.8,0,9.5
					s1.4,3.2,3.2,3.2s3.2-1.4,3.2-3.2l0,0c0-0.6-0.2-1.1-0.5-1.6l2.4-2.4h2.1l2.4-2.4L9.5,3.2z M3.2,11.1c-0.9,0-1.6-0.7-1.6-1.6
					C1.6,8.7,2.3,8,3.2,8c0.1,0,0.3,0,0.4,0.1l-1,1c-0.3,0.3-0.3,0.8,0,1.1s0.8,0.3,1.1,0l0,0l1-1c0.1,0.1,0.1,0.3,0.1,0.4
					C4.7,10.4,4,11.1,3.2,11.1L3.2,11.1z"/>
			</g>
		</g>
	</g>
	<g id="song" transform="translate(-14.957 -56.402)">
		<path id="Path_37141" class="st1" d="M116.8,101.6l-5.5-1.2c-0.1,0-0.1,0-0.2,0.1s-0.1,0.1-0.1,0.2v11.7c-0.5-0.7-1.2-1-2.1-1
			c-1.3,0.1-2.4,1.2-2.3,2.5s1.2,2.4,2.5,2.3s2.3-1.1,2.3-2.4v-8.1l5.2,1.1c0.1,0,0.1,0,0.2-0.1s0.1-0.1,0.1-0.2v-4.7
			C117,101.7,117,101.6,116.8,101.6z"/>
		<path id="Path_37142" class="st1" d="M101.7,103.1h7.5c0.2,0,0.3-0.2,0.3-0.4s-0.2-0.3-0.3-0.3h-7.5c-0.2,0-0.3,0.2-0.3,0.4
			C101.3,103,101.5,103.1,101.7,103.1L101.7,103.1z"/>
		<path id="Path_37143" class="st1" d="M101.7,105.4h7.5c0.2,0,0.3-0.2,0.3-0.4s-0.2-0.3-0.3-0.3h-7.5c-0.2,0-0.3,0.2-0.3,0.4
			C101.3,105.3,101.5,105.4,101.7,105.4L101.7,105.4z"/>
		<path id="Path_37144" class="st1" d="M109.5,107.8c0-0.2-0.2-0.3-0.3-0.4h-7.5c-0.2,0-0.3,0.2-0.3,0.4s0.2,0.3,0.3,0.3h7.5
			C109.4,108.2,109.5,108,109.5,107.8z"/>
	</g>
	<g id="song-2" transform="translate(-14.957 -40.403)">
		<path id="Path_37141-2" class="st0" d="M116.8,101.6l-5.5-1.2c-0.1,0-0.1,0-0.2,0.1s-0.1,0.1-0.1,0.2v11.7c-0.5-0.7-1.2-1-2.1-1
			c-1.3,0.1-2.4,1.2-2.3,2.5s1.2,2.4,2.5,2.3s2.3-1.1,2.3-2.4v-8.1l5.2,1.1c0.1,0,0.1,0,0.2-0.1s0.1-0.1,0.1-0.2v-4.7
			C117,101.7,117,101.6,116.8,101.6z"/>
		<path id="Path_37142-2" class="st0" d="M101.7,103.1h7.5c0.2,0,0.3-0.2,0.3-0.4c0-0.2-0.2-0.3-0.3-0.3h-7.5
			c-0.2,0-0.3,0.2-0.3,0.4C101.3,103,101.5,103.1,101.7,103.1L101.7,103.1z"/>
		<path id="Path_37143-2" class="st0" d="M101.7,105.4h7.5c0.2,0,0.3-0.2,0.3-0.4c0-0.2-0.2-0.3-0.3-0.3h-7.5
			c-0.2,0-0.3,0.2-0.3,0.4C101.3,105.3,101.5,105.4,101.7,105.4L101.7,105.4z"/>
		<path id="Path_37144-2" class="st0" d="M109.5,107.9c0-0.2-0.2-0.3-0.3-0.4h-7.5c-0.2,0-0.3,0.2-0.3,0.4c0,0.2,0.2,0.3,0.3,0.3
			h7.5C109.4,108.2,109.5,108,109.5,107.9z"/>
	</g>
	<g id="news-admin" transform="translate(105.043 44.104)">
		<path id="Path_37145" class="st0" d="M12,29.8v-13c0-0.3-0.2-0.5-0.5-0.5h-11c-0.3,0-0.5,0.2-0.5,0.5v12.1c0,1.3,1,2.3,2.3,2.3
			h10.1C12.1,30.8,12,30.3,12,29.8z M2.5,25.3H4c0.3,0,0.5,0.2,0.5,0.4c0,0.3-0.2,0.5-0.4,0.5l0,0H2.5c-0.3,0-0.5-0.2-0.4-0.5
			C2.1,25.5,2.3,25.3,2.5,25.3z M2,23.8c0-0.3,0.2-0.5,0.5-0.5H4c0.3,0,0.5,0.2,0.5,0.4c0,0.3-0.2,0.5-0.4,0.5l0,0H2.5
			C2.2,24.2,2,24,2,23.8z M9.5,29h-7C2.2,29,2,28.8,2,28.5C2,28.3,2.2,28,2.5,28l0,0h7c0.3,0,0.5,0.2,0.5,0.4C10,28.7,9.8,29,9.5,29
			L9.5,29z M10,26.5c0,0.3-0.2,0.5-0.5,0.5H6c-0.3,0-0.5-0.2-0.5-0.5V23c0-0.3,0.2-0.5,0.5-0.5h3.5c0.3,0,0.5,0.2,0.5,0.5V26.5z
			 M9.5,21.5h-7C2.2,21.5,2,21.3,2,21s0.2-0.5,0.4-0.5l0,0h7c0.3,0,0.5,0.2,0.5,0.4C10,21.2,9.8,21.5,9.5,21.5L9.5,21.5z M9.5,19.5
			h-7c-0.3,0-0.5-0.2-0.4-0.5c0-0.2,0.2-0.4,0.4-0.4h7c0.3,0,0.5,0.2,0.4,0.5C9.9,19.3,9.7,19.5,9.5,19.5z"/>
		<path id="Path_37146" class="st0" d="M6.5,23.5H9V26H6.5V23.5z"/>
		<path id="Path_37147" class="st0" d="M15.5,19.5h-2.6c0,10.6,0,10.3,0,10.3c0.1,0.9,0.8,1.5,1.6,1.4s1.4-0.7,1.4-1.5
			c0,0,0,0.2,0-9.8C16,19.7,15.8,19.5,15.5,19.5z"/>
	</g>
	<g id="news-admin-2" transform="translate(105.043 28.104)">
		<path id="Path_37145-2" class="st1" d="M12,29.8v-13c0-0.3-0.2-0.5-0.5-0.5h-11c-0.3,0-0.5,0.2-0.5,0.5v12.1c0,1.3,1,2.3,2.3,2.3
			h10.1C12.1,30.8,12,30.3,12,29.8z M2.5,25.3H4c0.3,0,0.5,0.2,0.5,0.4c0,0.3-0.2,0.5-0.4,0.5l0,0H2.5c-0.3,0-0.5-0.2-0.4-0.5
			C2.1,25.5,2.3,25.3,2.5,25.3z M2,23.8c0-0.3,0.2-0.5,0.5-0.5H4c0.3,0,0.5,0.2,0.5,0.4c0,0.3-0.2,0.5-0.4,0.5l0,0H2.5
			C2.2,24.2,2,24,2,23.8z M9.5,29h-7C2.2,29,2,28.8,2,28.5C2,28.3,2.2,28,2.5,28l0,0h7c0.3,0,0.5,0.2,0.5,0.4C10,28.7,9.8,29,9.5,29
			L9.5,29z M10,26.5c0,0.3-0.2,0.5-0.5,0.5H6c-0.3,0-0.5-0.2-0.5-0.5V23c0-0.3,0.2-0.5,0.5-0.5h3.5c0.3,0,0.5,0.2,0.5,0.5V26.5z
			 M9.5,21.5h-7C2.2,21.5,2,21.3,2,21s0.2-0.5,0.4-0.5l0,0h7c0.3,0,0.5,0.2,0.5,0.4C10,21.2,9.8,21.5,9.5,21.5L9.5,21.5z M9.5,19.5
			h-7c-0.3,0-0.5-0.2-0.4-0.5c0-0.2,0.2-0.4,0.4-0.4h7c0.3,0,0.5,0.2,0.4,0.5C9.9,19.3,9.7,19.5,9.5,19.5z"/>
		<path id="Path_37146-2" class="st1" d="M6.5,23.5H9V26H6.5V23.5z"/>
		<path id="Path_37147-2" class="st1" d="M15.5,19.5h-2.6c0,10.6,0,10.3,0,10.3c0.1,0.9,0.8,1.5,1.6,1.4s1.4-0.7,1.4-1.5
			c0,0,0,0.2,0-9.8C16,19.7,15.8,19.5,15.5,19.5z"/>
	</g>
	<g id="login" transform="translate(123.043 60.39)">
		<path id="Path_37111" class="st0" d="M14.8,10.7h-0.2v-1c0-1-0.7-1.7-1.6-1.7s-1.6,0.7-1.6,1.6v1h-0.2c-0.6,0-1.2,0.5-1.2,1.2v2.3
			c0,0.6,0.5,1.2,1.2,1.2h3.7c0.6,0,1.2-0.5,1.2-1.2v-2.3C16,11.2,15.5,10.7,14.8,10.7z M12.3,9.7C12.3,9.3,12.6,9,13,9
			s0.7,0.3,0.7,0.6c0,0,0,0,0,0.1v1h-1.3L12.3,9.7L12.3,9.7z"/>
		<path id="Path_37112" class="st0" d="M9,11.8c0-0.9,0.5-1.7,1.3-2V9.7c0-0.4,0.1-0.8,0.3-1.1C10.1,8.2,9.5,8,8.8,8H3.2
			C1.4,8,0,9.4,0,11.2v2.3C0,13.8,0.2,14,0.5,14H9V11.8z"/>
		<path id="Path_37113" class="st0" d="M9.3,3.3c0,1.8-1.5,3.3-3.3,3.3S2.7,5.1,2.7,3.3S4.2,0,6,0S9.3,1.5,9.3,3.3L9.3,3.3z"/>
	</g>
	<g id="login-2" transform="translate(123.043 44.39)">
		<path id="Path_37111-2" class="st1" d="M14.8,10.7h-0.2v-1c0-1-0.7-1.7-1.6-1.7s-1.6,0.7-1.6,1.6v1h-0.2c-0.6,0-1.2,0.5-1.2,1.2
			v2.3c0,0.6,0.5,1.2,1.2,1.2h3.7c0.6,0,1.2-0.5,1.2-1.2v-2.3C16,11.2,15.5,10.7,14.8,10.7z M12.3,9.7C12.3,9.3,12.6,9,13,9
			s0.7,0.3,0.7,0.6c0,0,0,0,0,0.1v1h-1.3L12.3,9.7L12.3,9.7z"/>
		<path id="Path_37112-2" class="st1" d="M9,11.8c0-0.9,0.5-1.7,1.3-2V9.7c0-0.4,0.1-0.8,0.3-1.1C10.1,8.2,9.5,8,8.8,8H3.2
			C1.4,8,0,9.4,0,11.2v2.3C0,13.8,0.2,14,0.5,14H9V11.8z"/>
		<path id="Path_37113-2" class="st1" d="M9.3,3.3c0,1.8-1.5,3.3-3.3,3.3S2.7,5.1,2.7,3.3S4.2,0,6,0S9.3,1.5,9.3,3.3L9.3,3.3z"/>
	</g>
	<g id="_14539" transform="translate(126.037 59.89)">
		<g id="Group_555" transform="translate(2.006)">
			<path id="Path_258" class="st0" d="M24.9,10.2c-0.9,0-1.7,0.4-2.3,1.1l-4.9-2.5c0.1-0.2,0.1-0.5,0.1-0.8s-0.1-0.6-0.1-0.8
				l4.8-2.5c1,1.3,2.8,1.5,4.1,0.5s1.5-2.8,0.5-4.1S24.3-0.4,23,0.6c-0.6,0.5-1.1,1.4-1.1,2.3c0,0.3,0,0.5,0.1,0.8l-4.8,2.5
				c-1-1.3-2.8-1.5-4.1-0.5s-1.5,2.8-0.5,4.1s2.8,1.5,4.1,0.5c0.2-0.2,0.4-0.3,0.5-0.5l4.8,2.5c-0.1,0.3-0.1,0.5-0.1,0.8
				c0,1.6,1.3,2.9,2.9,2.9s2.9-1.3,2.9-2.9C27.8,11.5,26.5,10.2,24.9,10.2L24.9,10.2z"/>
		</g>
	</g>
	<g id="_14539-2" transform="translate(126.037 43.89)">
		<g id="Group_555-2" transform="translate(2.006)">
			<path id="Path_258-2" class="st1" d="M24.9,10.2c-0.9,0-1.7,0.4-2.3,1.1l-4.9-2.5c0.1-0.2,0.1-0.5,0.1-0.8s-0.1-0.6-0.1-0.8
				l4.8-2.5c1,1.3,2.8,1.5,4.1,0.5s1.5-2.8,0.5-4.1S24.3-0.4,23,0.6c-0.6,0.5-1.1,1.4-1.1,2.3c0,0.3,0,0.5,0.1,0.8l-4.8,2.5
				c-1-1.3-2.8-1.5-4.1-0.5s-1.5,2.8-0.5,4.1s2.8,1.5,4.1,0.5c0.2-0.2,0.4-0.3,0.5-0.5l4.8,2.5c-0.1,0.3-0.1,0.5-0.1,0.8
				c0,1.6,1.3,2.9,2.9,2.9s2.9-1.3,2.9-2.9C27.8,11.5,26.5,10.2,24.9,10.2L24.9,10.2z"/>
		</g>
	</g>
	<path id="popular" class="st0" d="M168,64.2c-0.1-0.2-0.4-0.3-0.6-0.2c-0.1,0.1-0.2,0.2-0.2,0.4c0,0.6-0.5,1-1,1c-0.6,0-1-0.5-1-1
		v-3.9c0-0.3-0.2-0.5-0.5-0.5c-0.1,0-0.2,0-0.3,0.1c-0.9,1-1.8,2.1-2.6,3.2c-0.7,1-1.3,2.1-1.8,3.3s-0.8,2.5-0.8,3.9
		c0,3,2.5,5.4,5.5,5.3c3,0,5.3-2.4,5.3-5.3C169.9,68.2,169.2,66,168,64.2z M167.8,70.4c0,0.3-0.2,0.5-0.5,0.4
		c-0.2,0-0.4-0.2-0.4-0.4v-0.9l-2.3,2.3c-0.2,0.2-0.5,0.2-0.7,0l-1.1-1.1l-0.7,0.7c-0.2,0.2-0.5,0.2-0.7,0s-0.2-0.5,0-0.6l1.1-1.1
		c0.2-0.2,0.5-0.2,0.7,0l1.1,1.1l2-2h-0.9c-0.3,0-0.5-0.2-0.4-0.5c0-0.2,0.2-0.4,0.4-0.4h2c0.3,0,0.5,0.2,0.5,0.5l0,0L167.8,70.4
		L167.8,70.4z"/>
	<path id="popular-2" class="st1" d="M168,48.1c-0.1-0.2-0.4-0.3-0.6-0.2c-0.1,0.1-0.2,0.2-0.2,0.4c0,0.6-0.5,1-1,1
		c-0.6,0-1-0.5-1-1v-3.9c0-0.3-0.2-0.5-0.5-0.5c-0.1,0-0.2,0-0.3,0.1c-0.9,1-1.8,2.1-2.6,3.2c-0.7,1-1.3,2.1-1.8,3.3
		s-0.8,2.5-0.8,3.9c0,3,2.5,5.4,5.5,5.3c3,0,5.3-2.4,5.3-5.3C170,52.2,169.3,50,168,48.1z M167.8,54.4c0,0.3-0.2,0.5-0.5,0.4
		c-0.2,0-0.4-0.2-0.4-0.4v-0.9l-2.3,2.3c-0.2,0.2-0.5,0.2-0.7,0l-1.1-1.1l-0.7,0.7c-0.2,0.2-0.5,0.2-0.7,0s-0.2-0.5,0-0.6l1.1-1.1
		c0.2-0.2,0.5-0.2,0.7,0l1.1,1.1l2-2h-0.9c-0.3,0-0.5-0.2-0.4-0.5c0-0.2,0.2-0.4,0.4-0.4h2c0.3,0,0.5,0.2,0.5,0.5l0,0L167.8,54.4
		L167.8,54.4z"/>
	<g>
		<path class="st1" d="M177,55.4L177,55.4L177,55.4l-0.2,0.2l0,0l0,0l1.4,1.4c0,0,0,0,0.1,0l0.2-0.2l0,0l0,0L177,55.4z"/>
		<path class="st1" d="M182.6,53.3c-0.1,0.3-0.2,0.6-0.5,0.8c-0.3,0.3-0.8,0.5-1.2,0.5c-0.5,0-0.9-0.2-1.2-0.5s-0.5-0.8-0.5-1.2
			s0.2-0.9,0.5-1.2c0.2-0.2,0.5-0.4,0.8-0.5l2.2-2.2c-0.4-0.2-0.8-0.2-1.3-0.2c-1.6,0-3,1-3.5,2.5c-1,0.1-2,0.5-2.7,1.2
			c-0.8,0.8-1.2,1.9-1.2,3s0.4,2.2,1.2,3s1.9,1.2,3,1.2l0,0c1.1,0,2.2-0.4,3-1.2c0.7-0.7,1.2-1.7,1.2-2.7c1.5-0.5,2.5-1.9,2.5-3.5
			c0-0.5-0.1-0.9-0.2-1.3L182.6,53.3z M179.1,57.5l-0.2,0.2c-0.2,0.2-0.4,0.3-0.7,0.3s-0.5-0.1-0.7-0.3l-1.4-1.4
			c-0.2-0.2-0.3-0.4-0.3-0.7s0.1-0.5,0.3-0.7l0.2-0.2c0.2-0.2,0.4-0.3,0.7-0.3s0.5,0.1,0.7,0.3l1.4,1.4c0.2,0.2,0.3,0.4,0.3,0.7
			S179.3,57.3,179.1,57.5L179.1,57.5z"/>
		<path class="st1" d="M180.1,52.9c0,0.2,0.1,0.4,0.2,0.6s0.4,0.2,0.6,0.2c0.2,0,0.4-0.1,0.6-0.2s0.2-0.4,0.2-0.6s-0.1-0.4-0.2-0.6
			c-0.2-0.2-0.4-0.2-0.6-0.2c-0.2,0-0.4,0.1-0.6,0.2C180.2,52.5,180.1,52.7,180.1,52.9L180.1,52.9z"/>
		<path class="st1" d="M181.7,51.4c0.2,0.1,0.3,0.2,0.4,0.3c0.1,0.1,0.2,0.3,0.3,0.4l4.1-4.1l-0.8-0.8L181.7,51.4z"/>
		<path class="st1" d="M189.5,45.4l-1.1-1.1c-0.2-0.2-0.4-0.3-0.7-0.3s-0.5,0.1-0.7,0.3l-1.3,1.6l2.1,2.1l1.6-1.3
			c0.2-0.2,0.3-0.4,0.3-0.7C189.8,45.8,189.7,45.5,189.5,45.4L189.5,45.4z"/>
	</g>
	<g>
		<path class="st0" d="M177.1,71.5C177.1,71.5,177,71.5,177.1,71.5C177,71.5,177,71.5,177.1,71.5l-0.2,0.2l0,0l0,0l1.4,1.4
			c0,0,0,0,0.1,0l0.2-0.2l0,0l0,0L177.1,71.5z"/>
		<path class="st0" d="M182.6,69.4c-0.1,0.3-0.2,0.6-0.5,0.8c-0.3,0.3-0.8,0.5-1.2,0.5c-0.5,0-0.9-0.2-1.2-0.5s-0.5-0.8-0.5-1.2
			c0-0.5,0.2-0.9,0.5-1.2c0.2-0.2,0.5-0.4,0.8-0.5l2.2-2.2c-0.4-0.2-0.8-0.2-1.3-0.2c-1.6,0-3,1-3.5,2.5c-1,0.1-2,0.5-2.7,1.2
			c-0.8,0.8-1.2,1.9-1.2,3s0.4,2.2,1.2,3s1.9,1.2,3,1.2l0,0c1.1,0,2.2-0.4,3-1.2c0.7-0.7,1.2-1.7,1.2-2.7c1.5-0.5,2.5-1.9,2.5-3.5
			c0-0.5-0.1-0.9-0.2-1.3L182.6,69.4z M179.1,73.6l-0.2,0.2c-0.2,0.2-0.4,0.3-0.7,0.3s-0.5-0.1-0.7-0.3l-1.4-1.4
			c-0.2-0.2-0.3-0.4-0.3-0.7c0-0.3,0.1-0.5,0.3-0.7l0.2-0.2c0.2-0.2,0.4-0.3,0.7-0.3s0.5,0.1,0.7,0.3l1.4,1.4
			c0.2,0.2,0.3,0.4,0.3,0.7S179.3,73.4,179.1,73.6L179.1,73.6z"/>
		<path class="st0" d="M180.1,69c0,0.2,0.1,0.4,0.2,0.6s0.4,0.2,0.6,0.2c0.2,0,0.4-0.1,0.6-0.2s0.2-0.4,0.2-0.6s-0.1-0.4-0.2-0.6
			s-0.4-0.2-0.6-0.2c-0.2,0-0.4,0.1-0.6,0.2S180.1,68.8,180.1,69L180.1,69z"/>
		<path class="st0" d="M181.7,67.5c0.2,0.1,0.3,0.2,0.4,0.3s0.2,0.3,0.3,0.4l4.1-4.1l-0.8-0.8L181.7,67.5z"/>
		<path class="st0" d="M189.6,61.5l-1.1-1.1c-0.2-0.2-0.4-0.3-0.7-0.3s-0.5,0.1-0.7,0.3l-1.3,1.6l2.1,2.1l1.6-1.3
			c0.2-0.2,0.3-0.4,0.3-0.7C189.9,61.9,189.8,61.6,189.6,61.5L189.6,61.5z"/>
	</g>
</g>
</svg>
