<?xml version="1.0" encoding="utf-8"?>
<!-- Generator: Adobe Illustrator 24.1.3, SVG Export Plug-In . SVG Version: 6.00 Build 0)  -->
<svg version="1.1" id="Capa_1" xmlns="http://www.w3.org/2000/svg" xmlns:xlink="http://www.w3.org/1999/xlink" x="0px" y="0px"
	 viewBox="0 0 480 480" style="enable-background:new 0 0 480 480;" xml:space="preserve">
<g opacity="0.34">
	<!-- < -->g>
		<path d="M454.3,256.4l-45.7-50.7c-1-1.1-2.3-1.7-3.8-1.7h-30.4c-2,0-3.8,1.2-4.6,3c-0.8,1.8-0.5,4,0.9,5.5l42.6,47.3l-42.6,47.3
			c-1.3,1.5-1.7,3.6-0.9,5.5c0.8,1.8,2.6,3,4.6,3h30.4c1.4,0,2.8-0.6,3.8-1.7l45.7-50.7C456.1,261.3,456.1,258.4,454.3,256.4z" fill="#fff"/>
<!-- 	</g>
</g>
<g>
	<g> -->
		<path d="M378.4,256.4l-45.7-50.7c-1-1.1-2.3-1.7-3.8-1.7h-30.4c-2,0-3.8,1.2-4.6,3c-0.8,1.8-0.5,4,0.9,5.5l42.6,47.3l-42.6,47.3
			c-1.3,1.5-1.7,3.6-0.9,5.5c0.8,1.8,2.6,3,4.6,3H329c1.4,0,2.8-0.6,3.8-1.7l45.7-50.7C380.1,261.3,380.1,258.4,378.4,256.4z" fill="#fff"/>
<!-- 	</g>
</g>
<g>
	<g> -->
		<path d="M22.1,263.2L67.8,314c1,1.1,2.3,1.7,3.8,1.7H102c2,0,3.8-1.2,4.6-3c0.8-1.8,0.5-4-0.9-5.5l-42.6-47.3l42.6-47.3
			c1.3-1.5,1.7-3.6,0.9-5.5c-0.8-1.8-2.6-3-4.6-3H71.6c-1.4,0-2.8,0.6-3.8,1.7l-45.7,50.7C20.4,258.4,20.4,261.3,22.1,263.2z" fill="#fff"/>
<!-- 	</g>
</g>
<g>
	<g> -->
		<path d="M98.1,263.2l45.7,50.7c1,1.1,2.3,1.7,3.8,1.7H178c2,0,3.8-1.2,4.6-3s0.5-4-0.9-5.5l-42.6-47.3l42.6-47.3
			c1.3-1.5,1.7-3.6,0.9-5.5c-0.8-1.8-2.6-3-4.6-3h-30.4c-1.4,0-2.8,0.6-3.8,1.7l-45.7,50.7C96.4,258.4,96.4,261.3,98.1,263.2z" fill="#fff"/>
	<!-- </g> -->

<path d="M250.1,419.7h-21.3c-4.7,0-8.5-3.8-8.5-8.5V108c0-4.7,3.8-8.5,8.5-8.5h21.3c4.7,0,8.5,3.8,8.5,8.5v303.2
	C258.6,415.9,254.8,419.7,250.1,419.7z" fill="#fff"/>
</g>
</svg>
