<svg xmlns="http://www.w3.org/2000/svg" width="28.775" height="23.38" viewBox="0 0 28.775 23.38">
  <path id="twitter" d="M28.775,50.768a12.3,12.3,0,0,1-3.4.932,5.866,5.866,0,0,0,2.6-3.261,11.789,11.789,0,0,1-3.741,1.428,5.9,5.9,0,0,0-10.2,4.034,6.074,6.074,0,0,0,.137,1.345A16.7,16.7,0,0,1,2,49.075,5.9,5.9,0,0,0,3.816,56.96a5.826,5.826,0,0,1-2.665-.727V56.3a5.926,5.926,0,0,0,4.726,5.8,5.888,5.888,0,0,1-1.547.194,5.216,5.216,0,0,1-1.117-.1A5.955,5.955,0,0,0,8.726,66.3a11.853,11.853,0,0,1-7.314,2.516A11.049,11.049,0,0,1,0,68.732,16.608,16.608,0,0,0,9.05,71.38c10.855,0,16.79-8.992,16.79-16.787,0-.261-.009-.513-.022-.763A11.768,11.768,0,0,0,28.775,50.768Z" transform="translate(0 -48)" fill="#03a9f4"/>
</svg>
