<svg xmlns="http://www.w3.org/2000/svg" width="28.212" height="28.199" viewBox="0 0 28.212 28.199">
  <path id="Verified" d="M46.612,36.014c-.435-.321-.983-.718-1.046-.983a3.219,3.219,0,0,1,.422-1.436c.384-.876.775-1.789.34-2.545s-1.436-.882-2.4-.983a3.342,3.342,0,0,1-1.436-.34,3.254,3.254,0,0,1-.34-1.436c-.107-.958-.22-1.953-.983-2.4s-1.676-.057-2.552.334a3.221,3.221,0,0,1-1.443.422c-.265-.069-.662-.611-.983-1.046-.554-.75-1.184-1.6-2.092-1.6s-1.531.851-2.085,1.6c-.321.435-.718.983-.983,1.046a3.442,3.442,0,0,1-1.443-.422c-.882-.391-1.8-.775-2.545-.34s-.882,1.436-.989,2.407a3.342,3.342,0,0,1-.34,1.436,3.221,3.221,0,0,1-1.43.334c-.964.107-1.959.221-2.4.983s-.057,1.67.334,2.552a3.244,3.244,0,0,1,.422,1.443c-.069.265-.611.668-1.046.983C20.851,36.562,20,37.192,20,38.1s.851,1.531,1.6,2.085c.435.321.983.718,1.046.983a3.219,3.219,0,0,1-.422,1.436c-.384.876-.775,1.789-.34,2.545s1.436.882,2.4.983a3.342,3.342,0,0,1,1.436.34,3.254,3.254,0,0,1,.34,1.436c.107.958.221,1.953.983,2.4s1.663.044,2.545-.34a3.346,3.346,0,0,1,1.449-.416c.265.069.662.611.983,1.046.554.75,1.178,1.6,2.085,1.6s1.531-.851,2.085-1.6c.321-.435.718-.983.983-1.046a3.328,3.328,0,0,1,1.443.422c.876.384,1.789.775,2.545.34s.882-1.436.989-2.4a3.342,3.342,0,0,1,.34-1.436,3.315,3.315,0,0,1,1.43-.34c.964-.107,1.959-.22,2.4-.983s.044-1.663-.34-2.545a3.262,3.262,0,0,1-.416-1.449c.069-.265.611-.668,1.046-.983.75-.554,1.6-1.178,1.6-2.085S47.361,36.562,46.612,36.014Zm-4.082-1.2L32,45.351a.9.9,0,0,1-.636.265.886.886,0,0,1-.636-.265l-5.1-5.109a1.354,1.354,0,0,1,0-1.915l.636-.643a1.354,1.354,0,0,1,1.915,0l3.188,3.188,8.612-8.612a1.354,1.354,0,0,1,1.915,0l.636.643A1.348,1.348,0,0,1,42.529,34.817Z" transform="translate(-20 -24)" fill="#ff8300"/>
</svg>
