<?xml version="1.0" encoding="utf-8"?>
<!-- Generator: Adobe Illustrator 24.3.0, SVG Export Plug-In . SVG Version: 6.00 Build 0)  -->
<svg version="1.1" id="Layer_1" xmlns="http://www.w3.org/2000/svg" xmlns:xlink="http://www.w3.org/1999/xlink" x="0px" y="0px"
	 viewBox="0 0 267.2 106.6" style="enable-background:new 0 0 267.2 106.6;" xml:space="preserve">
<style type="text/css">
	.st0{fill:#FF8300;}
</style>
<g id="Group_902" transform="translate(71 -202.984)">
	<g id="Group_839" transform="translate(-71 202.984)">
		<g id="Virtual_Piano_NEW_LOGO_2020_FINAL_Black" transform="translate(0)">
			<g id="Group_801" transform="translate(0 0.026)">
				<path id="Path_417" class="st0" d="M52.7,25.4c7.3,0,13.3,2.3,18,7c-0.3-0.8-0.5-1.7-0.5-2.5c0-0.7,0.2-1.4,0.5-2.1
					c0.3-0.8,0.8-1.1,1.4-1.1c0.3,0,0.5,0.1,0.8,0.3c0.3,0.2,0.4,0.4,0.4,0.6c0,0.2-0.1,0.4-0.3,0.6c-0.2,0.2-0.4,0.3-0.6,0.5
					c-0.2,0.2-0.4,0.4-0.6,0.5c-0.2,0.2-0.3,0.4-0.3,0.7c0,0.8,0.2,1.2,0.6,1.2c0.4,0,0.7-0.3,1.1-0.8c0.2-0.3,0.4-0.7,0.4-1
					c0.3,0.7,0.6,1.4,1,2c0.3,0.7,0.5,1.4,0.6,2.2c0,0.6-0.2,1.1-0.5,1.5l-1.1,1.2c2.8,4,4.3,8.7,4.4,13.6c0,9.5-3.9,16.7-11.8,21.6
					l-0.4-1.1c2.5-2.2,4.4-5.1,5.3-8.3c0-0.9-0.3-1.3-1-1.1c-0.6,0.2-1.1,0.5-1.6,0.9c-1.5-0.5-2.5-2-2.3-3.6
					c1.1-0.1,1.7-0.8,1.8-2.1c0.9,0.1,1.7,0.5,2.3,1.2c-0.3-1.2-1.3-2.1-2.5-2.4c-1.1-0.3-1.7-0.9-1.7-1.8c0-0.2,0.4-0.3,1.1-0.4
					c0.6-0.1,0.9-0.2,0.8-0.3c-0.3-0.7-0.9-1.2-1.7-1.3c-0.3,0-0.6,0.1-0.8,0.3c-0.2,0.2-0.5,0.3-0.8,0.3c-0.8,0-1.1-0.2-1.1-0.8
					c0-0.7,0.6-1,1.7-1c2,0.1,3.8,1.2,4.7,3c1.1,2,1.7,4.3,1.7,6.5c0.1-0.7,0.2-1.3,0.2-2s0.1-1.2,0.1-1.8c-0.1-7-2.7-12.3-7.7-15.9
					c0.4,1.2,0.6,2.4,0.6,3.6c0,2.7-1.3,5.3-3.8,7.8c-2.1,2.3-5,3.7-8.1,3.7c-5.9,0-10.4-1.4-13.6-4.2c-2.7-2.5-4.3-5.9-4.4-9.5
					c-7.7,3-14.3,4.4-19.8,4.4c-6.6,0-11.2-1.8-13.8-5.4c-1-1.6-1.6-3.5-1.5-5.4c0-3.3,1.3-5.6,3.8-6.8c-0.9-1.5-1.4-3.1-1.4-4.8
					c0-2.1,0.8-4.2,2.3-5.8c1.5-1.6,3.7-2.5,5.9-2.5c2.2-0.1,4.5,0.4,6.4,1.6c1.8,1.1,2.9,3.2,2.8,5.3c0,4-1.7,5.9-5,5.9
					c-1.3,0-2.5-0.5-3.4-1.4c-0.9-0.8-1.4-1.9-1.5-3.1c0-0.4,0.1-0.7,0.2-1.1c0.1-0.4,0.2-0.7,0.2-1.1c0-0.5-0.3-0.8-0.8-0.6
					c-0.1,0.1-0.2,0.1-0.4,0.1c-0.2,0-0.3-0.1-0.4-0.3c0-1.2,0.4-1.7,1.3-1.4c0.9,0.3,1.4,1.2,1.4,2.1c0,0.4-0.1,0.8-0.3,1.2
					c-0.2,0.4-0.3,0.8-0.3,1.2c0,0.9,0.5,1.8,1.2,2.5c0.7,0.7,1.7,1,2.7,1c1.3,0,2.4-0.6,3.2-1.6c0.7-1,1.1-2.1,1.1-3.3
					c0.1-1.4-0.7-2.8-2.3-4.2c-1.3-1.2-3-2-4.8-2c-2.4-0.1-4.8,0.8-6.6,2.5c-2.5,2.6-2.8,6.6-0.8,9.6c0.6-0.2,1.2-0.3,1.8-0.3
					c1.6-0.1,3.2,0.3,4.6,1.2c1.3,0.8,2.1,2.1,2.4,3.6c0.3,0,0.7,0.1,1,0.1s0.7,0,1,0c4.7-0.1,9.3-0.8,13.9-2
					c2.3-0.6,4.6-1.3,6.9-1.9c2.3-0.6,4.5-1.2,6.8-1.9c3.1-0.8,6.3-1.3,9.6-1.3L52.7,25.4L52.7,25.4z M4.4,29c-2.4,1-3.5,3-3.5,5.9
					c-0.1,3.4,1.8,6.5,4.9,7.8c2,1,5.2,1.6,9.5,2c4.8,0.3,9.7-0.6,14.2-2.5c-1,0.1-1.9,0.1-2.8,0.2s-1.8,0-2.6,0
					c-3.6-0.2-6.3-0.9-8.1-2.1c-0.7-0.3-1.2-1-1.3-1.8c0-1,0.5-1.5,1.6-1.6c0.2,0,0.3,0,0.3,0.1c0,0.2-0.1,0.4-0.3,0.5
					c-0.3,0.4-0.4,0.8-0.4,1.2c0.1,0.4,0.2,0.7,0.5,1c0.3,0.1,0.6-0.2,0.9-0.8c0.1-0.2,0.3-0.3,0.3-0.3c1.4,1.1,3,1.9,4.7,2.3
					c0-0.5,0.1-0.9,0.4-1.3c0.3-0.3,0.5-0.6,0.8-0.9c0.2-0.4,0.4-0.8,0.4-1.2c2.6,0,3.9,0.7,3.9,2.2c0,0.5-0.1,1-0.3,1.5
					c2.6,0,5.3-0.4,7.8-1.2c0-2.6,1-5.2,2.7-7.2c1.7-2.1,3.9-3.9,6.3-5.2c-2.4,0.6-4.7,1.3-7,1.9c-2.3,0.6-4.7,1.3-7,1.9
					c-4.6,1.3-9.4,2-14.2,2.1h-1.2c-0.4,0-0.8-0.1-1.2-0.1c0.1,1.3-0.4,2.6-1.3,3.5c-1,0.9-2.3,1.4-3.6,1.3c-1.9,0-3.1-0.4-3.7-1.2
					c-0.7-1.2-0.9-2.5-0.8-3.8c0.8,0.1,1.1,0.7,1.1,1.9c0,0.3,0.1,0.5,0.3,0.7c0.3,0.3,0.5,0.5,0.9,0.7c0.3,0.2,0.7,0.4,1.1,0.5
					c0.3,0.1,0.6,0.2,1,0.2c1,0,2-0.3,2.7-1c0.8-0.5,1.2-1.4,1.2-2.4c0-0.1,0-0.3-0.1-0.4v-0.3C8.7,32.4,6,31,4.4,29L4.4,29z
					 M11.9,32.1c-0.9-2.4-2.7-3.5-5.5-3.5c-0.1,0-0.2,0-0.5,0s-0.4,0.1-0.7,0.1C7.1,30.5,9.4,31.6,11.9,32.1L11.9,32.1z M67.4,72.1
					c8.4-5.7,13.5-15.1,13.9-25.3c0-6.4-1.4-11.9-4.1-16.4c-3.5-5.8-8.8-8.7-15.8-8.7c-1.5,0-2.9,0.1-4.4,0.3
					c-1.7,0.2-3.7,0.5-5.9,0.9c-2.4,0.5-4.4,0.8-6.1,1c-1.7,0.2-3.1,0.3-4.2,0.4C37.4,24.4,34,23.6,31,22c-3.6-1.8-5.4-4-5.3-6.6
					c0.1-1.5,0.9-3,2.1-3.9c1.1-1.1,2.6-1.8,4.2-1.8c1.5,0.1,2.9,0.4,4.3,1c1.4,0.5,2.9,0.8,4.4,0.9c0.7-0.1,1.4-0.6,1.8-1.2
					c0.7-0.8,1.3-1.2,1.8-1c-0.2,1.2-0.6,2.5-1.1,3.6c-0.9,1.6-2.9,2.4-6.1,2.5c-1.4,0-2.7-0.3-4-0.8c-1.2-0.6-2.5-0.9-3.8-1
					c-0.7,0-1.4,0.3-1.9,0.9c-0.6,0.4-0.9,1-0.8,1.7c0.2,1.4,1.3,2.5,3.2,3.3c1.9,0.9,3.9,1.3,6,1.3c3,0,7.5-1.2,13.6-3.5
					c6.2-2.4,10.8-3.6,13.8-3.6c8.3,0,15,3,20.1,9c4.2,5.1,6.5,11.5,6.4,18.1c-0.1,6.6-2.2,13-6.1,18.3c-4,5.6-9,10.3-14.8,13.8
					L67.4,72.1z M45.8,37c-3.1,0.9-6.2,2.1-9.1,3.5v0.3c0,4.8,2.3,8.5,6.9,11.1c1.7,0.9,3.5,1.5,5.3,1.8c-0.2-0.5-0.5-1-0.8-1.4
					c-0.1-0.1,0.3-0.6,1.5-1.4c0.6-0.5,1.3-0.9,2-1.2c1.2,0.2,1.7,0.7,1.5,1.4c-0.1,0.5-0.2,0.9-0.2,1.1s-0.1,0.3-0.1,0.2
					c0,0.1,0,0.3,0.1,0.4c1.8-1,2.6-2.1,2.6-3.3c0-0.3-0.2-0.6-0.6-0.9s-0.6-0.6-0.6-0.9c0-0.5,0.2-0.8,0.8-0.8
					c0.5,0,0.9,0.3,1.2,0.6c0.3,0.3,0.5,0.7,0.6,1.2c0,2.4-1.7,4.1-5.1,5.3h0.8c2.9-0.1,5.6-1.2,7.7-3.3c2.5-2.2,3.7-4.7,3.7-7.3
					c0-3.4-2-5.6-5.9-6.5c-0.7,0.6-1.2,1.4-1.2,2.3c0,0.8,0.3,1.6,0.8,2.2c0.5,0.7,1.2,1.2,2,1.5c-2.7,0.1-4-1.1-4-3.6
					c0.1-1,0.5-2,1.3-2.7c-1.7-0.3-3.5-0.5-5.2-0.5c-0.5,0-1,0-1.5,0.1c-0.6,0.1-1.4,0.1-2.2,0.2c-0.2,0.3-0.3,0.7-0.3,1.1
					c0.2,0.9,0.7,1.8,1.4,2.3c0.6,0.5,1.2,1.1,1.7,1.7c0.5,0.6,0.8,1.3,0.8,2c0,2.3-1,3.6-3.2,3.9c0-0.3,0.1-0.7,0.2-1
					c0.1-0.3,0.2-0.7,0.2-1c0-0.7-0.6-1.5-1.8-2.3c-1.2-1-1.8-2.5-1.7-4.1C45.4,38.3,45.5,37.6,45.8,37L45.8,37z M60.4,34.4
					c0.8-0.3,1.6-0.5,2.4-0.5c4.6,0,8.4,2.1,11.4,6.4c-2.7-6.3-7.5-10.4-14.4-12.5c-2.7-0.7-5.4-1.1-8.1-1c-3.2,0-6.3,1.3-9.3,3.8
					c-3,2.5-4.8,5.3-5.4,8.3c3-1.5,6.2-2.5,9.5-3.1c1.7-2.2,4.2-3.3,7.6-3.3C56.3,32.4,58.5,33.1,60.4,34.4L60.4,34.4z M91.7,58.2
					l-0.2,0.4c-0.7,1.3-1.6,2.5-2.6,3.6c-1.2,1.4-2.6,2.6-4,3.8c-2.6,2.2-5.4,4.1-8.4,5.7c1.1-0.5,2.2-1,3.3-1.6c1-0.6,2-1.3,3-2
					l5.3-4.2c4.1-3.3,7.8-5,11.2-5c2.9,0,5.7,1,8,2.8c2.2,1.6,3.5,4.1,3.5,6.8c0.1,2.8-1.2,5.5-3.4,7.2c-2.3,1.9-5.2,2.8-8.2,2.8
					c-0.3,0-0.7,0-1-0.1h-0.4c-1.3,0-2.7,0.3-3.9,0.8c-1.6,0.8-2.4,1.6-2.4,2.6c0,0.5,0.5,1,1.4,1.6c1,0.6,1.4,1.1,1.3,1.4
					c-0.9,0-1.9-0.2-2.7-0.8c-0.7-0.4-1.2-1.2-1.2-2c0-1.7,1.8-3,5.3-3.9c-2.6-0.4-5-1.5-7-3.1c-1.5-1.3-3.4-2.1-5.4-2.3
					c-1.1,0-1.7,0.7-1.7,2.1c0,0.4,0.1,0.7,0.1,1.1c-1.1,0-1.6-0.5-1.6-1.4c0-1.6,1-2.5,3-2.5c1.6,0,3.2,0.4,4.6,1.2
					c0.7,0.5,1.4,0.9,2,1.3c0.7,0.4,1.3,0.8,2,1.3c1,0.6,2.1,1.1,3.3,1.4c-2.9-1.8-4.4-3.9-4.4-6.3c0-1.9,0.7-3.8,2-5.2
					c1.3-1.5,3.3-2.4,5.3-2.3c0.7,0,1.5,0.1,2.1,0.4c0.7,0.3,1.3,0.6,1.8,1.1c0.5,0.4,1,1,1.3,1.6c0.3,0.6,0.5,1.3,0.5,1.9
					c0.1,1.3,0.6,2,1.4,2c0.3,0,0.7-0.1,1-0.2c-0.2,0.9-1,1.5-2,1.4c-1.3-0.1-2-0.6-2-1.4c0-0.4,0.1-0.7,0.2-1.1
					c0.1-0.3,0.2-0.7,0.2-1.1c0-0.9-0.6-1.7-1.8-2.5c-1-0.7-2.1-1.1-3.3-1c-1.6,0.1-3,1-3.8,2.3c-1,1.2-1.6,2.6-1.7,4.2
					c0,0.8,0.2,1.6,0.6,2.4c0.4,0.7,0.9,1.4,1.5,1.9c0.7,0.6,1.4,1,2.2,1.3c0.8,0.3,1.7,0.5,2.6,0.5c-1.3-0.5-2.4-1.4-3.2-2.5
					c-0.8-1-1.3-2.2-1.4-3.5c0-0.9,0.3-1.8,0.9-2.5c0.5-0.8,1.3-1.2,2.3-1.2c0.3,0,0.7,0.2,0.9,0.5c0.2,0.2,0.4,0.5,0.3,0.8
					c-0.1,0.6-0.6,0.9-1.3,0.8c-0.1,0-0.3-0.1-0.4-0.1c-0.1,0-0.2,0-0.3-0.1c-0.2,0-0.3,0-0.3,0.2c0,0.3,0.2,0.5,0.7,0.8
					c0.4,0.2,0.6,0.5,0.4,0.6c-0.5,0.5-0.8,1.3-0.8,2c0,1,0.8,1.8,1.8,1.8c0.1,0,0.2,0,0.4,0c0.6-0.1,1.2-0.4,1.5-1
					c0.7,0,1.4,0.4,1.8,0.9c0.1,0.3,0.3,0.6,0.4,0.9s0.3,0.6,0.4,0.9c4.4-1.1,6.6-3.8,6.6-8c0-2.2-1.2-4.1-3.5-5.8
					c-2-1.5-4.5-2.3-7-2.4c-2.6,0-6.1,1.5-10.5,4.6l-5.4,3.9c-1,0.6-1.9,1.2-2.9,1.8c-1,0.6-2.1,1-3.1,1.4l-2-1
					c5.8-3.1,10.9-7.3,15.1-12.5h-0.1c1-1.6,2-3.2,3-4.8c1-1.6,2-3.3,3-4.8c1.2-1.9,2.3-3.6,3.4-5.1s2.2-2.9,3.3-4.1
					c1.7-2,3.5-3.8,5.5-5.5v-0.2c0.1-2.6,1-5,2.7-7c1.9-2.5,4.1-3.7,6.7-3.7c-1.6,2-2.9,4.3-3.8,6.7c0.8-0.5,1.6-1,2.4-1.6
					s1.6-1.1,2.4-1.6c2.6-1.8,3.9-3,3.9-3.5c0-0.2-0.1-0.3-0.2-0.5c-0.2-0.2-0.3-0.4-0.5-0.5c-0.2-0.1-0.4-0.3-0.5-0.5
					c-0.1-0.1-0.2-0.3-0.1-0.5c0.1-0.5,0.7-0.9,1.2-0.8c1.1,0,1.7,0.8,1.7,2.3c0,1.4-1.2,2.9-3.5,4.4c-0.7,0.5-1.5,0.9-2.3,1.3
					c-0.8,0.4-1.7,0.9-2.7,1.3c-0.3,0.1-0.3,0.1,0,0.1c0.3,0,0.7,0,1,0c1.1,0,1.8-0.1,2.2-0.1s0.5,0,0.3,0c2.7,0,4,0.9,4,2.7
					c-0.1,1.5-0.4,2.1-1,1.9c-0.3-0.1-0.5-0.2-0.7-0.4l-0.3-0.3c0.7-0.4,0.9-0.8,0.8-1.2c-0.3-0.7-1.2-1.3-2.7-1.7
					c-0.5-0.2-1-0.3-1.6-0.3c-3.2,0-4.6,1.3-4.4,4c0.1,1.8,0.5,3.6,1.1,5.3c0.1,0,0.3,0,0.4-0.1h0.3c2.9,0,4.8,1.5,5.6,4.6
					c0.1,0.4,0.3,0.8,0.5,1.2c0.2,0.4,0.6,0.9,1,1.5c0.1,0.2,0.2,0.3,0.2,0.4s0.1,0.2,0.1,0.3c-0.2,0.1-0.4,0.2-0.7,0.1
					c-0.9-0.1-1.8-1.5-2.8-4c-1-2.3-2.4-3.5-4.3-3.5H115c0.6,1.1,1.2,2.5,2,4.2s1.7,3.6,2.8,6c1.7,3.7,2.7,7.8,2.8,11.9
					c0,7.4-4.1,13.9-12.2,19.4c-0.6,0.4-1.4,0.8-2.4,1.4s-2.4,1.2-3.9,1.9c-1.3,0.6-2.5,1.2-3.7,1.9c-1,0.6-1.9,1.2-2.6,1.7
					c-1.5,1.3-2.9,2.8-4,4.4l-1.6-0.3c0.1-0.4,0.2-0.7,0.3-1.1c-2.5-3.4-6.2-5.8-10.4-6.7c-1.6-0.4-3.2-0.7-4.8-0.9
					c-2-0.2-4.6-0.5-7.6-0.6c-4.9-0.3-9.8-1.6-14.2-3.8c-1.4-0.7-2.7-1.7-3.8-2.8C51.4,76.9,51,77,50.7,77c-0.2,0-0.3,0.1-0.5,0.1
					c-4,0-6-1.5-6-4.6c0-0.7,0.2-1.3,0.6-1.9c0.3-0.7,1-1.1,1.7-1c0.8,0,1.2,0.2,1.2,0.5c-0.3,1-0.9,1.8-1.7,2.5
					c-0.4,0.5-0.7,0.8-0.7,1c0,1.6,1.4,2.5,4.1,2.5c0.5,0,1,0,1.5-0.1c-1.6-1.9-2.5-4.4-2.5-6.9c0-1.2,0.2-2.4,0.5-3.6h-0.5
					c-1.6,0-3.1,0.6-4.2,1.7c-1.2,0.9-2.1,2.2-2.6,3.5c-0.4,0.9-0.6,1.9-0.6,2.9c0.1,4.1,3.4,7.2,9.9,9.3c5.5,1.7,11.3,2.5,17.1,2.5
					c9.3,0,17.3,2.4,23.9,7.2h-1.2c-6.8-4.1-14.6-6.2-22.5-6.1c-7.6,0-13.6-0.8-18.2-2.3c-6.8-2.2-10.2-5.9-10.2-10.9
					c0-2.3,0.9-4.5,2.4-6.1c1.5-1.8,3.8-2.8,6.2-2.7h0.9c1-2.9,3.9-4.8,7-4.6c1.6,0.2,3.1,0.8,4.3,1.8c1.1,0.9,2.4,1.6,3.8,1.8
					c0.4,0,0.8-0.2,1-0.5c0.3-0.4,0.7-0.6,1.2-0.5c0.2,1.1-0.2,2.2-0.9,3c-0.8,0.9-1.9,1.3-3,1.3c-1.2-0.1-2.3-0.4-3.3-1
					c-1.1-0.6-2.1-1.1-3.2-1.7c-0.9-0.5-1.9-0.8-2.9-0.9c-1.1,0-2,0.7-2.4,1.6c3.7,0.7,5.5,2.7,5.5,5.8c0,0.8-0.2,1.5-0.4,2.3
					c3.6,1.4,9.1,2.3,16.4,2.8c6.6,0.5,12.4,3.5,17.3,9.3c1.4,1.7,2.6,3.5,3.5,5.5c1.2-2.4,4.4-5,9.7-7.9c2-1.1,3.9-2.4,5.7-3.9
					c1.5-1.2,2.8-2.5,3.9-4.1c1.5-2.1,2.3-4.7,2.3-7.4c0-1.7-0.2-3.3-0.7-4.9c-0.1-0.3-0.3-0.8-0.6-1.5s-0.7-1.8-1.3-3
					c-2-5-3.2-10.3-3.5-15.7c-3.1,1.3-6.4,4-10,8c1.3-1,2.9-1.5,4.6-1.6c1,0,2,0.3,2.9,0.8c0.4,0.2,0.6,0.5,0.8,0.9
					c0,0.3,0,0.6-0.2,0.9c-0.1,0.3-0.4,0.4-0.7,0.4c-0.3,0-0.6-0.3-1.1-0.8c-0.4-0.4-0.7-0.7-1.1-1.2c-0.3,0.4-0.5,0.9-0.7,1.3
					c-0.1,0.4-0.4,0.5-0.9,0.1c-0.4-0.3-0.9-0.5-1.4-0.5c-0.8,0-1.6,0.3-2.3,0.8c0.4,0,0.7,0.1,0.9,0.1s0.3,0,0.4,0
					c0.6,0.1,0.9,0.4,1,0.7c0.1,0.4-0.1,0.8-0.8,1c-0.6,0.2-1.2,0.5-1.7,0.9c-0.3,0.4-0.4,0.9-0.4,1.4c0,0.5-0.3,0.7-0.8,0.7
					c-0.9-0.2-1.8-0.7-2.5-1.3c-0.8,1.3-1.8,2.6-2.9,3.7L91.7,58.2L91.7,58.2z M48.5,35.5c1.1-0.1,2.1-0.2,3.2-0.2
					c2,0,3.9,0.2,5.9,0.6c0.2-0.2,0.4-0.4,0.4-0.7c0-0.4-0.5-0.8-1.5-1.2c-1.3-0.4-2.6-0.5-4-0.5C50.9,33.6,49.4,34.3,48.5,35.5z
					 M54.8,72.1v-0.3c0-3.6-1.4-5.7-4.3-6.2c-0.1,0.3-0.1,0.6-0.1,1C50.5,68.8,52,70.7,54.8,72.1L54.8,72.1z M83.6,61.8
					c0,0,0.1-0.1,0.3-0.3c0.2-0.2,0.2-0.3,0.3-0.3c3.4-4.2,6-9,7.6-14.1c0.1-0.3,0.2-0.7,0.2-1c0-0.4,0-0.8,0-1.2
					c0-1.4-0.1-2.7-0.2-4.1c-0.1-0.3-0.2-0.6-0.3-1.1s-0.3-0.9-0.5-1.5c-0.1-0.2-0.1-0.3,0.1-0.3c0.7,0,1.3,0.9,1.8,2.7
					c0-6.6-2.1-13-5.9-18.4c-2.6-3.5-3.9-5.5-4.1-5.8c-1.2-2-2-4.2-2.2-6.5c-5-2.9-10.9-4.3-17.9-4.4c-1.9,0-3.7,0.3-5.5,0.8
					c-2.5,0.7-3.7,1.7-3.7,3.1c0,1.7-0.3,2.5-0.8,2.6c-0.3,0-0.4-0.6-0.4-1.7c0-0.2-0.1-0.5-0.3-0.6C52,9.2,51.9,8.9,52,8.6
					c0-1.4,1.3-2.5,3.9-3.5C58.1,4.4,60.3,4,62.7,4c6.3,0,12.5,1.6,17.9,4.6c0.1-2.3,1.2-4.5,3-5.9C85.4,1,87.8,0,90.3,0
					c2.1,0,4.3,0.3,6.3,1.1c2.4,1,3.6,2.4,3.6,4.2c0,4.3-2.2,6.5-6.7,6.5c-3.3,0.1-5-1.1-5.1-3.5C88.2,5.4,89.7,4,92.9,4
					c0.9,0.1,1.8,0.5,2.5,1.2c0.3,0.3,0.6,0.7,0.8,1.2c0.1,0.4,0,0.9-0.3,1.2c-0.3-0.1-0.5-0.3-0.7-0.6c-0.3-0.3-0.6-0.7-1-1.1
					c-0.3-0.5-0.8-1-1.4-1.2c-0.9-0.1-1.9,0.1-2.6,0.7c-0.6,0.6-0.8,1.5-0.6,2.4c0.1,0.9,0.5,1.7,1.2,2.4c0.7,0.7,1.6,1,2.6,1
					c1.5,0,2.9-0.6,4-1.5c1.2-0.7,1.9-2,2-3.3c0-1.3-0.9-2.6-2.7-3.7c-1.6-1.1-3.6-1.7-5.6-1.8c-2.3,0.1-4.5,1-6.1,2.7
					C83,5.1,82,7,82,8.9c0,0.5,1.2,1.7,3.7,3.8c0.6,0.5,1.2,1.1,2,1.9c0.8,0.8,1.7,1.7,2.7,2.7c2.9-2.3,6.6-3.5,11.1-3.5
					c0.2,0,0.5,0,0.8,0s0.5,0.1,0.8,0.1c0.8-2.4,2.4-4.4,4.6-5.7c2.2-1.4,4.9-2.2,7.5-2.3c1.4,0,2.8,0.3,4.1,0.9
					c1.3,0.5,2.1,1.7,2.2,3c0,0.7-0.2,1.4-0.7,1.9c-0.4,0.6-1,0.9-1.7,0.9c-1.2,0-1.8-0.1-1.9-0.5c-0.1-0.5,0.5-1.3,1.9-2.3
					c0.6-0.4,0.8-0.6,0.8-0.8c0-0.8-0.6-1.4-1.7-1.8c-0.9-0.4-1.9-0.7-2.9-0.7c-1.2,0-2.3,0.3-3.4,0.7c-1.1,0.4-2.1,0.9-3.1,1.6
					c-1,0.7-1.8,1.5-2.6,2.4c-0.7,0.9-1.3,1.8-1.8,2.9c0.4,0.1,1.1,0.3,2.1,0.6s2.2,0.8,3.8,1.4c1.9,0.7,3.9,1.1,6,1.3
					c0.9,0,1.9-0.6,3.2-1.8c0.8-0.8,1.7-1.4,2.6-1.8c0,2.4-1.2,4.6-3.7,6.5c-2.1,1.7-4.8,2.7-7.5,2.8c-2.5-0.1-5-0.7-7.3-1.7
					c-0.7,10.8-4.4,21.2-10.5,30.1c-0.3,0.4-1,1.3-2,2.6c-1,1.3-2.4,3.1-4.1,5.3c-2,2.7-4.3,5.3-6.8,7.5c-2.6,2.2-5.5,4.1-8.6,5.5
					L71,71.7c5-2.2,9.3-5.6,12.7-9.9L83.6,61.8z M79.4,101.9c-0.6-0.8-0.9-1.8-0.9-2.8c0.1-1.8,0.9-3.5,2.3-4.6
					c1.3-1.3,3.2-2.1,5-2.1h0.7c0.2,0,0.5,0,0.7,0.1l1.4,0.1c-2.2-1-4.7-1.6-7.2-1.6c-2.7,0.1-5.4,0.6-7.9,1.4
					c-1.3,0.4-2.5,0.8-3.8,1.2c-1.3,0.4-2.5,0.8-3.8,1.2c-0.9,0.2-1.8,0.4-2.7,0.5c-0.9,0.1-1.9,0.2-2.9,0.2c-1.2,0-2.5-0.3-3.6-0.8
					c-1.4-0.7-2.1-1.5-2.1-2.5s0.4-1.4,1.4-1.2c0.9,0.2,1.4,0.6,1.4,1c0,0.2-0.2,0.5-0.4,0.6c-0.3,0.2-0.4,0.4-0.4,0.5
					c0,1.1,1.4,1.6,3.9,1.6c1.8,0,4.8-0.8,9.1-2.5c4.4-1.6,7.8-2.5,10.3-2.5c3.7-0.1,7.3,0.9,10.3,2.9h0.2v0.1c0,0.1,0.4,0.5,1.2,1
					c0.1,0.1,0.1,0.2,0.1,0.2l-1.4-0.7v0.1c0-0.2-0.6-0.3-1.7-0.3c-0.2,0-0.5-0.1-0.7-0.1h-1.2c-1,0-1.9,0.1-2.9,0.4
					c-0.9,0.2-1.7,0.6-2.4,1.2c-0.7,0.5-1.3,1.1-1.7,1.9c-0.4,0.7-0.6,1.6-0.6,2.4c0,1.8,1,3.3,2.9,4.7c1.9,1.4,4.2,2.1,6.5,2
					c1.8,0,3.6-0.6,5.1-1.6c1.9-1.2,2.8-2.4,2.9-3.7c0-0.5,0-1.1-0.3-1.5c-0.2-0.5-0.5-1-0.9-1.4C95,97,94.5,96.7,94,96.4
					c-0.5-0.3-1.1-0.4-1.6-0.4c-1-0.1-2,0.2-2.8,0.8c-0.8,0.5-1.2,1.3-1.2,2.2c0,0.5,0.3,1,0.6,1.4c0.4,0.4,0.6,1,0.6,1.6
					c0,1-0.8,1.6-2.4,1.6c0-0.2,0.1-0.4,0.2-0.6s0.2-0.4,0.2-0.6c0-0.6-0.2-1.2-0.6-1.7c-0.3-0.5-0.5-1.1-0.6-1.7
					c0.1-1.2,0.8-2.2,1.9-2.7c1.1-0.5,2.3-0.8,3.5-0.9c0.7,0,1.4,0.1,2.1,0.3c0.6,0.2,1.2,0.6,1.8,1c0.5,0.4,0.9,0.9,1.2,1.5
					c0.3,0.6,0.5,1.2,0.4,1.9c0,1.1-0.3,2.1-1,3l4.1-3.1c1.3-1.1,3-1.7,4.7-1.8c1.9,0,2.8,0.5,2.9,1.4c0,0.9-0.3,1.2-0.8,1
					c-0.9-0.2-1.8-0.7-2.5-1.4c-0.9,0.1-1.7,0.4-2.4,1l-3.2,2.2c-2.1,1.6-4.5,2.8-7,3.5c-1,0.3-2.1,0.4-3.2,0.5
					C84.4,106.3,81.2,104.8,79.4,101.9z M58.6,36.2c0.5,0.2,1,0.3,1.5,0.4c0.1,0,0.2-0.1,0.2-0.1c-0.1-0.1-0.2-0.2-0.3-0.2
					c-0.1-0.1-0.4-0.3-0.8-0.5C59.1,35.9,58.9,36.1,58.6,36.2z M63.7,38c6.7,3.4,10,8.3,10,14.6c0,6-1.4,11-4.3,15.1
					c4.4-4.2,6.7-10.1,6.7-17.8c0.1-1.5,0-3.1-0.4-4.6c-2.7-7.1-7-10.7-12.9-10.7c-0.6,0-1.1,0.1-1.7,0.3
					C62.2,35.8,63.1,36.8,63.7,38L63.7,38z M82.2,10.7c0.2,2,0.9,3.8,2,5.5c1.1,1.7,2.3,3.3,3.6,4.8l-0.2-0.5
					c-0.1-0.1,0.2-0.5,0.8-1.2c0.1-0.1,0.2-0.2,0.3-0.3s0.2-0.2,0.3-0.3l0.4-0.3C87.6,15.3,85.1,12.7,82.2,10.7L82.2,10.7z
					 M89.3,20.5c-0.4,0.3-0.8,0.6-1.3,1c2.8,3.2,4.7,7,5.6,11.2c0.3,1.9,0.4,3.8,0.4,5.7c0.1-0.8,0.2-1.5,0.2-2.3
					c-0.1-5.7-1.5-11.2-4-16.3C90,20,89.7,20.2,89.3,20.5L89.3,20.5z M91.1,52.7c7.3-10.4,11.1-21,11.5-31.7
					c-3.6-1.6-6.5-2.5-8.7-2.5c-0.8,0-1.6,0.2-2.3,0.5c2.6,4.1,4.1,8.9,4.2,13.8C95.9,39.8,94.3,46.6,91.1,52.7L91.1,52.7z
					 M94.7,93.1c1.1-1.7,2.6-3.2,4.3-4.3c2.3-1.7,5-2.8,7.9-3.2c4.2-0.5,7.1-1.6,8.7-3.2c0.5-0.4,0.8-1.1,0.8-1.7
					c0-0.2-0.1-0.3-0.2-0.4c-0.1-0.1-0.2-0.3-0.2-0.4c0-0.4,0.3-0.5,0.8-0.5c0.8,0,1.2,0.4,1.2,1.2c0,1.5-1.4,2.9-4.1,4.2
					c-2.6,1.2-5.4,2-8.2,2.5c-4.1,0.7-7.8,3-10.2,6.4L94.7,93.1z M108.5,35.6c-2.3,2.2-4.4,4.6-6.4,7.1c-2.3,2.9-4.4,5.9-6.3,9
					c4.6-5.8,8.9-9.4,13-10.8C108.5,39.2,108.5,37.5,108.5,35.6L108.5,35.6z M96.2,93.8c2.6-3.1,6.3-5.1,10.2-5.7
					c8.9-1.4,14.1-3.9,15.4-7.6c0.1-0.2-0.1-0.5-0.5-0.7s-0.7-0.5-0.7-0.8c0-0.8,0.4-1.2,1.3-1.2c1,0,1.4,0.4,1.3,1.2
					c-0.3,1.8-1.6,3.8-4,5.9c-1.1,1-2.3,1.7-3.7,2.1l2,0.5c0.8,0.2,1.8,0.4,2.9,0.7c2,0.5,3,1.4,3,2.5c0,0.9-0.4,1.3-1.1,1.3
					c-0.2,0-0.4-0.2-0.4-0.6c-0.1-0.3-0.2-0.6-0.4-0.8c-1.9-1.8-4.4-2.8-7-2.7c0,0-2.4,0.3-7.2,0.8c-2.1,0.2-4,0.8-5.8,1.9
					c-1.7,1-3.3,2.2-4.8,3.5L96.2,93.8z"/>
			</g>
			<path id="Path_418" class="st0" d="M198.7,92.3c-0.6-0.8-1-1.8-1-2.8c0.1-1.8,1-3.5,2.5-4.6c1.5-1.4,3.5-2.1,5.5-2.1h0.7
				c0.2,0,0.5,0,0.7,0.1l1.5,0.1c-2.5-1-5.1-1.6-7.8-1.6c-2.9,0.1-5.8,0.6-8.6,1.4c-1.4,0.4-2.7,0.8-4.1,1.2s-2.8,0.8-4.2,1.2
				c-1,0.2-2,0.4-3,0.5c-1,0.1-2.1,0.2-3.2,0.2c-1.4,0-2.7-0.3-3.9-0.8c-1.5-0.7-2.3-1.5-2.3-2.5c0-1,0.5-1.4,1.5-1.2
				c1,0.2,1.5,0.6,1.5,1c0,0.2-0.1,0.4-0.4,0.6s-0.4,0.4-0.4,0.5c0.1,1.1,1.5,1.6,4.3,1.6c1.9,0,5.2-0.8,9.9-2.5
				c4.8-1.6,8.5-2.5,11.2-2.5c3.9-0.1,7.8,0.9,11.2,2.9h0.2v0.1c0,0.1,0.4,0.5,1.3,1c0.1,0.1,0.2,0.2,0.2,0.2l-1.5-0.7v0.1
				c0-0.2-0.6-0.3-1.8-0.3c-0.2,0-0.5-0.1-0.7-0.1h-1.3c-1.1,0-2.1,0.1-3.1,0.4c-0.9,0.2-1.8,0.6-2.6,1.2c-0.7,0.5-1.4,1.1-1.8,1.9
				c-0.4,0.7-0.7,1.6-0.7,2.4c0,1.8,1.1,3.3,3.2,4.7c2.1,1.4,4.6,2.1,7.1,2c2,0,3.9-0.6,5.6-1.6c2-1.2,3.1-2.4,3.1-3.7
				c0-0.5-0.1-1.1-0.3-1.5c-0.2-0.5-0.6-1-1-1.4c-0.5-0.4-1-0.8-1.5-1.1c-0.5-0.3-1.1-0.4-1.8-0.4c-1.1-0.1-2.2,0.2-3.1,0.8
				c-0.8,0.4-1.3,1.3-1.4,2.2c0,0.5,0.3,1,0.7,1.4c0.4,0.4,0.6,1,0.7,1.6c0,1-0.9,1.6-2.6,1.6c0-0.2,0.1-0.4,0.2-0.6
				c0.1-0.2,0.2-0.4,0.2-0.6c0-0.6-0.3-1.2-0.6-1.7c-0.3-0.5-0.6-1.1-0.6-1.7c0-1.1,0.7-2,2-2.7c1.2-0.5,2.5-0.8,3.9-0.9
				c0.8,0,1.6,0.1,2.3,0.3c0.7,0.2,1.4,0.6,1.9,1c0.5,0.4,1,0.9,1.4,1.5c0.3,0.6,0.5,1.2,0.5,1.9c0,1.1-0.4,2.2-1.1,3l4.4-3.1
				c1.5-1.1,3.2-1.7,5.1-1.8c2,0,3.1,0.5,3.2,1.4c0,0.9-0.3,1.2-0.9,1c-1-0.2-1.9-0.7-2.7-1.4c-0.9,0.1-1.9,0.4-2.6,1l-3.4,2.2
				c-2.3,1.6-4.9,2.8-7.6,3.5c-1.1,0.3-2.3,0.4-3.4,0.5C204.2,96.6,200.7,95.2,198.7,92.3z"/>
			<path id="Path_419" class="st0" d="M253.6,105.1c0.2,0.2,0.4,0.3,0.6,0.3c1,0.2,2-0.5,3.1-2c0.9-1.2,1.5-2.7,1.9-4.1
				c1-4,0.9-8.1-0.5-12c1.7,0.3,3.4-0.1,4.8-1.1c1.5-0.8,2.6-2.2,3-3.9c0.4-1.3,0.4-2.7,0.2-4.1c-0.4-1.7-1.2-2.6-2.4-2.9
				c-3.1-0.6-5,0.5-5.8,3.3c-0.6,2.1,0,3.3,1.7,3.7c2.1,0.5,3.4-0.2,3.9-2.3c0.1-0.6-0.1-1.2-0.4-1.7c-0.2-0.3-0.4-0.5-0.7-0.6
				c-0.3-0.1-0.6-0.1-0.9,0c0.1,0.2,0.2,0.4,0.3,0.5c0.2,0.2,0.4,0.5,0.7,0.8c0.3,0.3,0.5,0.6,0.6,1.1c-0.1,0.6-0.4,1.2-0.9,1.5
				c-0.6,0.3-1.2,0.3-1.8,0.1c-0.6-0.2-1.1-0.6-1.5-1.1c-0.4-0.5-0.5-1.2-0.3-1.8c0.3-1,0.9-1.8,1.7-2.3c0.7-0.7,1.7-1,2.7-0.8
				c1.1,0.3,1.9,1.2,2.3,2.2c0.5,1.2,0.7,2.5,0.4,3.8c-0.5,1.5-1.5,2.8-2.9,3.5c-1.3,0.9-2.9,1.3-4.5,1.1c-0.3-0.1-1-1-2.2-2.9
				c-0.3-0.4-0.6-0.9-1-1.6s-0.9-1.3-1.5-2.1c2.2-1.6,3.7-3.9,4.3-6.5c0-0.2,0.1-0.3,0.1-0.5c0-0.2,0-0.3,0.1-0.5
				c1.8-0.2,3.5-0.9,4.9-2.1c1.4-1.2,2.4-2.7,2.8-4.5c0.2-0.9,0.3-1.8,0-2.7c-0.2-0.9-0.9-1.6-1.8-1.8c-0.5-0.1-1,0-1.5,0.2
				c-0.5,0.1-0.8,0.5-0.9,1c-0.2,0.7-0.2,1.1,0,1.3c0.4,0.1,1-0.2,1.9-0.9c0.4-0.3,0.6-0.4,0.7-0.4c0.6,0.1,0.9,0.5,1.1,1.3
				c0.2,0.6,0.2,1.3,0,1.9c-0.2,0.7-0.6,1.4-1,2c-1,1.3-2.3,2.4-3.8,3c-0.8,0.3-1.5,0.6-2.4,0.7c0-0.3,0-0.7-0.1-1.4
				c-0.1-0.7-0.2-1.5-0.4-2.6c-0.2-1.3-0.2-2.6,0-3.9c0.1-0.5,0.7-1.1,1.8-1.8c0.7-0.4,1.3-0.8,1.8-1.4c-1.9-0.3-3.8,0.2-5.3,1.4
				c-1.6,1-2.7,2.6-3.2,4.4c-0.3,1.6-0.3,3.3,0.1,4.9c-7.9-1.1-15.9-0.2-23.4,2.5c-0.3,0.1-1.1,0.4-2.2,0.9s-2.6,1.1-4.5,1.8
				c-2.3,0.9-4.4,1.9-6.5,3.2c-2,1.3-3.8,2.9-5.3,4.7l0.6,0.4c2.4-2.9,5.5-5.1,9-6.4l0,0.1c0,0,0.1-0.1,0.3-0.1s0.2-0.1,0.3-0.1
				c3.6-1.6,7.5-2.5,11.4-2.8c0.3,0,0.5,0,0.8,0c0.3,0,0.6,0.1,0.8,0.2c1,0.2,2,0.4,2.9,0.7c0.2,0.1,0.4,0.2,0.7,0.4s0.6,0.3,1,0.5
				c0.1,0.1,0.2,0.1,0.3,0c0.1-0.4-0.4-0.9-1.6-1.5c4.6,0.9,8.9,3.1,12.3,6.3c2.1,2.1,3.3,3.2,3.5,3.4c1.3,1.1,2.8,1.9,4.4,2.3
				c1.3,3.9,1.4,8,0.3,11.9c-0.3,1.2-0.8,2.3-1.4,3.4c-0.9,1.5-1.9,2.1-2.8,1.9c-1.2-0.2-1.9-0.2-2,0.1c0,0.2,0.3,0.3,1.2,0.5
				C253.3,104.9,253.5,104.9,253.6,105.1z M252.9,78.8c-2.7-2.3-5.8-3.9-9.3-4.6c-5-1-10.1-0.9-15.1,0.2c8.7-3.2,16.9-4.1,24.7-2.9
				c0.6,1.9,0.7,3.9,0.4,5.9C253.5,77.9,253.3,78.4,252.9,78.8L252.9,78.8z M252.2,79.6c-0.2,0.1-0.4,0.3-0.7,0.5s-0.6,0.4-0.9,0.7
				c-1.9-2.3-4.4-4-7.2-5.1c-1.3-0.5-2.7-0.8-4.1-1c0.6,0,1.1,0.1,1.7,0.2C245.1,75.6,248.9,77.2,252.2,79.6L252.2,79.6z
				 M257.5,85.9c-1.3-0.4-2.6-1.1-3.7-2c-1-0.9-2-1.9-2.9-3l0.3,0.2c0.1,0.1,0.4-0.1,1-0.4c0.1-0.1,0.2-0.1,0.3-0.2
				c0.1-0.1,0.2-0.1,0.3-0.2l0.3-0.2C255,81.8,256.5,83.8,257.5,85.9L257.5,85.9z"/>
			<path id="Path_420" class="st0" d="M187.6,73.4c2.3,0.1,3.5,0.1,3.6,0.1c1.1,0.1,1.4,0.2,1.5,0.1c0.1-0.3-1.6-1-3.3-2.6
				c0,0-2.8-2.6-2.6-5.3c0-0.7,0.6-1.2,1.5-1c0.8,0.2,1.3,0.4,1.2,1.1c0,0.2-1,0.5-1.5,0.6c-0.2,0-0.4,0.1-0.5,0.2
				c-0.2,0.2,0,0.6,0.1,0.8c0.3,0.9,0.8,1.7,1.4,2.4c0.3,0.4,0.7,0.7,1,1c1.2,1,2.4,1.8,3.8,2.5c4,1.9,6.2,2.7,8.1,3.5
				c1.3,0.5,2.5,1,3.8,1.6c2.2,1.3,4.1,3.2,5.5,5.3l-0.2,0.1c-1.4-1.5-2.8-2.8-4.4-4c-1.6-1.2-3.5-2.1-5.4-2.8
				c-2.2-0.9-4.6-1.7-6.9-2.2c-2.8-0.3-4.3-1-7.3-0.1c-0.6,0.2-1.2,0.4-1.7,0.7c-0.3,0.2-0.4,0.9-0.9,0.6c-0.3-0.1-0.6-0.4-0.8-0.6
				c-0.1-0.2-0.2-0.4-0.2-0.6c0.1-0.7,1.6-1.3,2.9-1.4C186.3,73.4,186.7,73.4,187.6,73.4z"/>
			<path id="Path_421" class="st0" d="M143.3,29.4h-9.8c-1.1,0-2,0.9-2,2v73.2c0,1.1,0.9,2,2,2h9.8c1.1,0,2-0.9,2-2V31.4
				C145.3,30.3,144.4,29.4,143.3,29.4z M144.1,103.9c0,0.8-0.7,1.5-1.5,1.5h-8.3c-0.8,0-1.5-0.7-1.5-1.5V32.1c0-0.8,0.7-1.5,1.5-1.5
				h8.3c0.8,0,1.5,0.7,1.5,1.5V103.9z"/>
			<path id="Path_422" class="st0" d="M157.7,63.8c-0.3,0-0.6,0-0.9,0v40c0,0.8-0.7,1.5-1.5,1.5h-8.3c-0.8,0-1.5-0.7-1.5-1.5v-71
				c-0.4,0.1-0.8,0.1-1.2,0v71.8c0,1.1,0.9,2,2,2h9.8c1.1,0,2-0.9,2-2V63.8C157.8,63.8,157.8,63.8,157.7,63.8z"/>
			<path id="Path_423" class="st0" d="M148.9,77.5c0,0.6-0.5,1-1.1,1h-6c-0.6,0-1.1-0.4-1.1-1V30.4c0-0.6,0.5-1,1.1-1h6
				c0.6,0,1.1,0.4,1.1,1L148.9,77.5L148.9,77.5z"/>
			<g id="Group_802" transform="translate(131.691)">
				<path id="Path_424" class="st0" d="M4.3,0v22.4H0V0H4.3z"/>
				<path id="Path_425" class="st0" d="M21.5,0c1.9-0.1,3.7,0.5,5.1,1.7c1.3,1.1,2,2.8,2,4.5c0,1.2-0.3,2.3-1,3.3
					c-0.7,1-1.8,1.8-2.9,2.2c0.7,0.4,1.4,0.9,1.9,1.6c0.8,1,1.5,2.2,2.1,3.3c1.4,2.7,2.4,4.6,3,5.6H27c-0.5-0.8-0.9-1.5-1.3-2.4
					c-0.8-1.7-1.7-3.3-2.7-4.8c-0.4-0.7-1-1.3-1.7-1.8c-0.6-0.3-1.2-0.5-1.8-0.5h-1.6v9.5h-4.3V0H21.5z M20.6,9.6
					c1,0.1,1.9-0.2,2.7-0.8c0.7-0.6,1-1.4,1-2.3c0.1-0.9-0.3-1.7-1-2.3c-0.8-0.6-1.8-0.8-2.7-0.8h-2.7v6.2L20.6,9.6z"/>
				<path id="Path_426" class="st0" d="M55.7,0v3.4h-7.9v19h-4.3v-19h-7.9V0H55.7z"/>
				<path id="Path_427" class="st0" d="M67.3,0v13c0,1.1,0.2,2.2,0.6,3.2c0.4,0.8,1.1,1.5,2,2c1,0.5,2.1,0.8,3.2,0.8
					c1.2,0,2.3-0.2,3.4-0.7c0.9-0.4,1.6-1.1,2-2c0.5-1.1,0.7-2.3,0.6-3.5V0h4.3v13.3c0.2,2.6-0.8,5.1-2.7,6.9
					c-1.8,1.6-4.4,2.4-7.7,2.4c-1.9,0-3.7-0.3-5.4-1.1c-1.5-0.7-2.7-1.8-3.5-3.2c-0.8-1.5-1.2-3.2-1.2-4.9V0L67.3,0L67.3,0z"/>
				<path id="Path_428" class="st0" d="M103.3,0l9.9,22.4h-4.6l-2.3-5.4h-9.9l-2.2,5.4h-4.5L98.9,0H103.3z M97.7,13.7h7.2l-3.8-8.9
					L97.7,13.7z"/>
				<path id="Path_429" class="st0" d="M124.3,0v19h10.9v3.4h-15.2V0L124.3,0L124.3,0z"/>
			</g>
			<g id="Group_803" transform="translate(178.923 29.475)">
				<path id="Path_430" class="st0" d="M4.3,0.3v22.4H0V0.3H4.3z"/>
				<path id="Path_431" class="st0" d="M22.4,0.3l9.9,22.4h-4.6l-2.3-5.4h-9.9l-2.2,5.4H8.7L18,0.3H22.4z M16.7,13.9H24l-3.8-8.9
					L16.7,13.9z"/>
				<path id="Path_432" class="st0" d="M40.4,0.3l13.3,15.6V0.3h4.2v22.4h-3.7L40.8,6.8v15.9h-4.2V0.3H40.4L40.4,0.3z"/>
				<path id="Path_433" class="st0" d="M75.9,0c2.2,0,4.3,0.5,6.3,1.4c1.8,0.9,3.4,2.4,4.4,4.1c3.3,5.3,1.6,12.3-3.7,15.5
					c-0.2,0.1-0.4,0.3-0.7,0.4c-4,2-8.7,2-12.7,0c-3.7-1.9-6.1-5.8-6-10c0-2,0.5-4,1.6-5.8c1-1.8,2.6-3.2,4.4-4.2
					C71.5,0.5,73.7,0,75.9,0z M68,11.5c0,1.4,0.3,2.8,1,4c0.7,1.2,1.6,2.1,2.8,2.8c1.3,0.7,2.7,1,4.1,1c2.1,0.1,4.1-0.7,5.7-2.2
					c1.5-1.5,2.3-3.5,2.2-5.6c0-1.4-0.3-2.8-1-4c-0.7-1.2-1.6-2.1-2.8-2.8c-2.6-1.3-5.6-1.3-8.2,0c-1.2,0.6-2.2,1.6-2.8,2.8
					C68.3,8.7,68,10.1,68,11.5L68,11.5z"/>
			</g>
			<path id="Path_434" class="st0" d="M167.2,33.7c-1.2-1.1-4.6-4.3-13.9-4.3c-1.2,0-7,0-8.3,0c0.1,1.1,0.1,2.1,0,3.2
				c0.2,0,5.1,0,5.3,0c2.8,0,5.4,1,7.5,2.9c4.2,3.7,4.4,8.8,4.4,11.2c0,7.6-5.8,12.3-10,12.3c-1.6,0-2.1,0.2-2.1,0.8
				c0,0.5,0.5,0.6,0.9,0.7c0.5,0.1,1,0.1,1.6,0.1c10.6,0,18.4-7.5,18.4-18.1C170.8,39.2,169.5,36.1,167.2,33.7z"/>
		</g>
	</g>
</g>
</svg>
