<svg xmlns="http://www.w3.org/2000/svg" width="29.107" height="20.38" viewBox="0 0 29.107 20.38">
  <g id="youtube" transform="translate(0)">
    <path id="Path_37129" data-name="Path 37129" d="M28.508,3.189A3.647,3.647,0,0,0,25.942.623C23.665,0,14.553,0,14.553,0S5.443,0,3.165.6A3.721,3.721,0,0,0,.6,3.189a38.427,38.427,0,0,0-.6,7,38.286,38.286,0,0,0,.6,7,3.647,3.647,0,0,0,2.566,2.566c2.3.623,11.389.623,11.389.623s9.111,0,11.389-.6a3.647,3.647,0,0,0,2.566-2.565,38.429,38.429,0,0,0,.6-7A36.474,36.474,0,0,0,28.508,3.189Zm0,0" transform="translate(0)" fill="#ff8300"/>
    <path id="Path_37130" data-name="Path 37130" d="M204.969,111.212l7.576-4.364-7.576-4.364Zm0,0" transform="translate(-193.316 -96.658)" fill="#fff"/>
  </g>
</svg>
